<?xml version="1.0" encoding="UTF-8"?>
<!DOCTYPE svg  PUBLIC '-//W3C//DTD SVG 1.1//EN'  'http://www.w3.org/Graphics/SVG/1.1/DTD/svg11.dtd'>
<svg width="210mm" height="297mm" clip-rule="evenodd" fill-rule="evenodd" image-rendering="optimizeQuality" shape-rendering="geometricPrecision" text-rendering="geometricPrecision" version="1.1" viewBox="0 0 21000 29700" xml:space="preserve" xmlns="http://www.w3.org/2000/svg">
 <defs>
  <style type="text/css">
    .fil9 {fill:none}
    .fil11 {fill:#403F3F}
    .fil3 {fill:#4D4D4D}
    .fil7 {fill:#735345}
    .fil2 {fill:#7A7979}
    .fil15 {fill:#7C0015}
    .fil14 {fill:#9E0620}
    .fil4 {fill:#9F9D9B}
    .fil1 {fill:#B5B5B5}
    .fil13 {fill:#CCD8ED}
    .fil12 {fill:#E4EAF5}
    .fil10 {fill:#E6E6E6}
    .fil8 {fill:#EBBC96}
    .fil6 {fill:#FACAA3}
    .fil5 {fill:#4A4949;fill-rule:nonzero}
    .fil0 {fill:url(#a)}
  </style>
  <linearGradient id="a" x1="11021" x2="8481.2" y1="6936" y2="20641" gradientUnits="userSpaceOnUse">
   <stop stop-color="#fff" offset="0"/>
   <stop stop-color="#E6E6E6" offset="1"/>
  </linearGradient>
 </defs>
   <polygon class="fil0" points="19541 21392 1459 21392 1459 8473 19541 8473"/>
   <path class="fil1" d="m2621 13018l3791-158c46-5 79 16 92 72l917 6126 253 16 47-110 606-63 125 3 589 38-3-9c-9-29-15-67-41-156-27-90-73-231-110-378-38-146-66-298-60-424 7-126 49-225 120-305 72-81 173-143 224-201s51-114 113-237c61-123 185-315 310-516 126-201 254-410 342-577 88-166 137-289 188-404 50-115 103-221 198-329s232-218 373-359 286-313 419-441c132-128 251-212 407-278 157-66 351-115 477-170 125-55 183-116 302-172 119-55 300-103 418-131 119-28 175-36 206-62 32-25 38-68 49-111s27-86 29-138c2-53-9-114-32-175-24-61-61-120-93-187-31-67-59-140-81-220s-39-166-50-212c-12-46-18-51-38-63-20-11-53-28-83-43-29-16-55-30-74-52-20-23-32-55-39-101-6-46-6-106-7-146 0-39-1-57-11-84-9-27-27-63-45-108-19-45-38-99-48-141-11-41-12-71-11-94 1-22 6-38 14-46 8-9 19-10 16-47-3-36-20-106-36-213-15-107-29-250-26-382 2-132 19-252 65-374s120-245 195-317c76-71 153-91 204-128 52-37 77-91 126-145 49-53 122-106 244-153 123-48 295-90 446-103 152-14 283 0 411 41s252 108 363 180 208 149 292 258c83 108 154 246 198 440 44 195 62 444 70 575s7 144 16 151c8 7 25 7 41 30 16 24 31 71 34 128s-4 123-9 183-8 114-11 175c-4 60-10 128-19 174s-23 72-51 98c-28 25-71 52-101 75-31 23-48 43-60 94s-19 132-26 207c-6 74-13 141-25 200-12 58-30 108-39 157-8 49-8 97-7 137 2 40 5 71 17 104 11 34 31 70 46 101s25 56 46 74 53 27 81 37c29 9 54 18 79 36 25 17 49 44 94 59 45 16 110 20 207 41s226 58 325 84c100 26 171 41 258 74 88 33 193 84 371 169 179 84 431 201 629 310s341 211 423 286 101 123 142 189 103 150 280 425c178 274 471 739 669 1044 199 304 302 447 373 545 71 99 108 151 142 236s65 202 97 300 65 178 94 280c29 103 53 228 44 361-9 132-51 271-87 400s-67 248-101 334c-35 86-72 139-120 180-47 40-104 69-197 87-92 17-220 24-559 69-338 45-887 129-1220 173s-450 49-527 48-115-8-242 12c-126 20-342 66-465 88-122 22-151 20-152 0s25-57 44-128c19-70 30-174 13-281-16-107-60-217-135-305-75-89-181-155-278-193-97-39-185-50-305-65-121-16-273-36-400-52-126-16-228-28-310-34s-145-6-194 10c-50 16-86 48-131 66s-98 23-146 34c-48 12-91 31-146 81s-122 132-164 183c-43 51-60 72-75 89l-3 4c-23 29-46 58-68 86-39 51-72 99-94 137s-33 67-38 85c-1 4-2 8-3 11l1873 117 67 13 62 83 205 20-7 218-655 285-354-24-57 195-21 34-306-18-20-43 52-192-5896-394-79 181-38 32-270-18 83-211 3-5-206-13c-10 38-34 71-67 100-61 53-153 89-242 107-76 16-151 17-202 5l-1998-449 43 235 1922 506c47 34 41 153-3 188l-2782 606c-45 10-39 10-82-2l-1713-506c-27-8-52-71-56-133-4-58 10-117 57-128l1338-333c-14-241-10-483 16-724l-474-112c-60-13-68-31-83-79-589-1857-845-3699-932-5548-2-48 51-82 121-107 97-33 227-48 293-55zm9665 5865c-9-18-18-39-28-60-18-40-35-82-57-121s-48-75-81-115c-32-39-72-82-125-125-54-44-120-88-174-112s-96-28-155-27c-59 0-135 5-174 7-38 2-38 2-42-16-4-19-12-57-26-134-13-78-31-195-42-297-12-103-16-190-20-245-5-55-9-79-18-71-8 7-20 46-28 86-8 39-13 78-19 117-7 40-15 79-38 118-23 40-61 78-93 106-31 27-56 44-72 62s-24 38-43 60c-20 21-51 44-59 57-9 14 4 17 37 24s86 18 135 32c49 13 94 29 132 48 39 19 69 41 87 55 17 15 21 21-2 28-22 7-71 15-109 18s-64 1-103-7c-38-8-88-23-140-40-51-18-104-38-170-38s-145 19-210 49c-65 29-117 68-156 109s-66 84-87 131c-21 48-37 101-43 150-6 48-2 93 7 134 10 41 25 78 37 103 8 19 14 32 9 55l1949 122c0-2 1-5 1-7 2-10 3-19 1-33-1-14-5-33-14-61-10-29-25-68-44-111-7-17-15-34-23-51z"/>
   <path class="fil2" d="m2328 13073l3734-104c48-1 73 37 80 83l972 6610c14-2 28-5 42-8 89-18 181-54 242-107 33-29 57-62 67-100l293 19 6816 457 655-285 2-57-622 165-7154-464-951-6350c-13-56-46-77-92-72l-3791 158c-66 7-196 22-293 55z"/>
   <path class="fil3" d="m8327 18904l-606 63-47 110 6905 447 452-121-62-82-91-12-423-26c3-1-18 6 31-7 4-1 9-2 13-4l-445-28c0 3 1 5 1 7l-62-3 5-7-293-18c0 2-1 4-1 7l-108-7 5-7-1555-97 5 7-138-8c0-3 0-5-1-7l-327-21 4 7-94-5-1-7-327-21 5 7-114-7c-1-2-2-4-3-7l-1505-94-92 76-47-3-36-69-923-60-125-3z"/>
   <polygon class="fil4" points="7721 18967 14536 19385 14969 19321 15031 19403 14579 19524 7674 19077"/>
   <path class="fil5" d="m7641 19662c-10 0-17-9-16-18 0-10 9-17 18-17l178 13c10 0 17 9 16 18 0 10-9 17-18 17l-178-13zm6242 429c-10-1-17-9-17-19 1-10 9-17 19-17l207 11c10 0 17 8 17 18-1 10-9 17-18 17l-208-10z"/>
   <path class="fil3" d="m3230 15429l-25 2c-70 300-86 623-43 928 42 296 140 574 299 793l40 3c44-4 1089 151 1129 140-287-481-382-1254-261-1766-3-18-19-18-35-18l-1104-82z"/>
   <path class="fil6" d="m14049 10051c-128-41-259-55-411-41-151 13-323 55-446 103-122 47-195 100-244 153-49 54-74 108-126 145-51 37-128 57-204 128-75 72-149 195-195 317s-63 242-65 374c-3 132 11 275 26 382 16 107 33 177 36 213 3 37-8 38-16 47-8 8-13 24-14 46-1 23 0 53 11 94 10 42 29 96 48 141 18 45 36 81 45 108 10 27 11 45 11 84 1 40 1 100 7 146 7 46 19 78 39 101 19 22 45 36 74 52 30 15 63 32 83 43 20 12 26 17 38 63 11 46 28 132 50 212s50 153 81 220c32 67 69 126 93 187l12 36c14 44 21 89 20 128 6 46 11 103 24 157 14 60 37 119 68 176 30 56 67 112 141 192 73 79 182 184 275 270 93 85 171 151 217 187s62 41 97 19 90-71 173-139 193-154 296-247c104-92 200-191 267-272s105-143 128-197c24-54 34-100 38-145 3-38 2-75 9-108l-3-9c-12-33-15-64-17-104-1-40-1-88 7-137 9-49 27-99 39-157 12-59 19-126 25-200 7-75 14-156 26-207s29-71 60-94c30-23 73-50 101-75 28-26 42-52 51-98s15-114 19-174c3-61 6-115 11-175s12-126 9-183-18-104-34-128c-16-23-33-23-41-30-9-7-8-20-16-151s-26-380-70-575c-44-194-115-332-198-440-84-109-181-186-292-258s-235-139-363-180z"/>
   <path class="fil7" d="m14049 10051c-128-41-259-55-411-41-151 13-323 55-446 103-122 47-195 100-244 153-49 54-74 108-126 145-51 37-128 57-204 128-75 72-149 195-195 317s-63 242-65 374c-3 132 11 275 26 382 16 107 33 177 36 213 2 20-1 29-5 35 30 27 43 46 56 74 17 38 33 91 56 167 24 75 53 173 84 265 30 91 61 176 71 192 11 15 1-39-13-116s-31-178-41-280c-9-103-10-207 2-301 12-93 37-174 37-259 0-84-25-171-31-247-6-75 7-139 50-192s116-95 222-131c107-36 247-67 412-93s356-47 512-43c155 5 275 34 394 101 119 66 237 168 285 276 48 107 26 220 45 295 20 75 80 112 126 160 45 47 75 104 91 185s18 186 19 282c2 96 3 183 10 188 6 6 18-70 31-151 12-80 24-165 37-244 12-79 25-151 45-206 19-51 43-86 90-118-7-4-13-6-17-9-9-7-8-20-16-151s-26-380-70-575c-44-194-115-332-198-440-84-109-181-186-292-258s-235-139-363-180z"/>
   <path class="fil8" d="m13842 13983c-83 7-165 0-239-25-75-25-142-68-211-119-69-52-139-113-196-176-57-62-100-127-134-174-34-46-60-74-82-107l-15-24c2 4 3 7 5 11 22 57 33 114 32 164 6 46 11 103 24 157 14 60 37 119 68 176 30 56 67 112 141 192 73 79 182 184 275 270 93 85 171 151 217 187s62 41 97 19 90-71 173-139 193-154 296-247c104-92 200-191 267-272s105-143 128-197c24-54 34-100 38-145 3-38 2-75 9-108l-3-9c-12-33-15-64-17-104-1-32-1-70 3-109-42 47-77 104-131 179-61 85-146 196-232 291-86 96-173 178-259 229s-171 72-254 80z"/>
    <path class="fil9" d="m12201 18702c-22-39-48-75-81-115-32-39-72-82-125-125-54-44-120-88-174-112s-96-28-155-27c-48 0-109 3-150 6-75 11-96 15-115 20-1 0-3 1-4 1-1 4-5 7-16 10-22 7-71 15-109 18s-64 1-103-7c-38-8-88-23-140-40-51-18-104-38-170-38s-145 19-210 49c-65 29-117 68-156 109s-66 84-87 131c-21 48-37 101-43 150-6 48-2 93 7 134 10 41 25 78 37 103 5 14 10 24 11 36 8 9 17 16 26 21 13 8 27 13 49 17 42 9 109 14 154 21 45 6 67 14 96 34 28 19 64 51 107 67 43 17 92 19 128 18 35-2 56-9 70-25 14-17 21-45 14-77-1-5-2-11-4-17-9-27-26-56-42-80-20-30-38-53-34-71 4-19 31-34 54-28 23 7 42 34 73 85 18 29 41 67 63 101 15 25 30 47 44 64 34 42 59 53 100 57 40 5 97 3 131-2s45-14 50-31c5-16 6-38-2-67 0-3-1-6-2-8-9-34-28-75-56-130-28-54-65-121-73-163-7-42 15-60 40-43 24 17 50 68 86 143 31 65 70 148 99 206 4 9 8 17 12 25 30 58 44 76 74 88s76 17 109 18c32 0 51-5 68-10 18-5 34-10 45-23 11-12 18-33 17-64 0-4 0-9-1-13-2-30-10-69-23-116-14-53-35-118-56-173-20-55-39-100-42-113-4-13 9 7 41 58s82 133 124 203c37 60 67 110 94 149 4 6 8 12 12 17 30 41 56 67 88 81 31 13 67 16 100 12 34-4 66-13 86-32 16-15 25-37 29-58 1-5 2-10 2-14 3-26 0-48-9-77s-23-63-41-103c-4-9-8-17-11-27 0-1-1-1-1-2-12-23-30-60-48-100s-35-82-57-121z"/>
    <path class="fil6" d="m10859 18293c-66 0-145 19-210 49-65 29-117 68-156 109s-66 84-87 131c-21 48-37 101-43 150-6 48-2 93 7 134 10 41 25 78 37 103 5 14 10 24 11 36 8 9 17 16 26 21 13 8 27 13 49 17 42 9 109 14 154 21 45 6 67 14 96 34 28 19 64 51 107 67 43 17 92 19 128 18 35-2 56-9 70-25 14-17 21-45 14-77-1-5-2-11-4-17-9-27-26-56-42-80-20-30-38-53-34-71 4-19 31-34 54-28 23 7 42 34 73 85 18 29 41 67 63 101 15 25 30 47 44 64 34 42 59 53 100 57 40 5 97 3 131-2s45-14 50-31c5-16 6-38-2-67 0-3-1-6-2-8-9-34-28-75-56-130-28-54-65-121-73-163-7-42 15-60 40-43 24 17 50 68 86 143 31 65 70 148 99 206 4 9 8 17 12 25 30 58 44 76 74 88s76 17 109 18c32 0 51-5 68-10 18-5 34-10 45-23 11-12 18-33 17-64l-1-13c-2-30-10-69-23-116-14-53-35-118-56-173-20-55-39-100-42-113-4-13 9 7 41 58s82 133 124 203c37 60 67 110 94 149 4 6 8 12 12 17 30 41 56 67 88 81 31 13 67 16 100 12 34-4 66-13 86-32 16-15 25-37 29-58l2-14c3-26 0-48-9-77s-23-63-41-103c-4-9-8-17-11-27 0-1-1-1-1-2-12-23-30-60-48-100s-35-82-57-121-48-75-81-115c-32-39-72-82-125-125-54-44-120-88-174-112s-96-28-155-27c-48 0-109 3-150 6-75 11-96 15-115 20-1 0-3 1-4 1-1 4-5 7-16 10-22 7-71 15-109 18s-64 1-103-7c-38-8-88-23-140-40-51-18-104-38-170-38z"/>
    <path class="fil8" d="m11649 18403c9 2 39 22 84 82 44 59 101 158 160 266 58 107 116 222 158 298 43 76 68 113 97 134 28 21 59 26 88 22 29-3 56-15 82-42 17-18 33-42 51-53v7c0 5 0 10-1 15l-2 14c-4 21-13 43-29 58-20 19-52 28-86 32-33 4-69 1-100-12-32-14-58-40-88-81-4-5-8-11-12-17-27-39-57-89-94-149-42-70-92-152-124-203s-45-71-41-58c3 13 22 58 42 113 21 55 42 120 56 173 13 47 21 86 23 116v4l1 7v9c0 28-7 46-17 57-11 13-27 18-45 23-17 5-36 10-68 10-33-1-79-6-109-18s-44-30-74-88c-4-8-8-16-12-25-29-58-68-141-99-206-36-75-62-126-86-143-25-17-47 1-40 43 8 42 45 109 73 163 28 55 47 96 56 130 1 2 2 5 2 8l1 1h-1c4 14 6 27 6 38v3c0 9-1 18-4 25-5 17-16 26-50 31s-91 7-131 2c-41-4-66-15-100-57-14-17-29-39-44-64-22-34-45-72-63-101-31-51-50-78-73-85-23-6-50 9-54 28-4 18 14 41 34 71 16 24 33 53 42 80v1c2 6 3 12 4 17 2 8 3 15 3 22v2c0 21-7 39-17 52-14 16-35 23-70 25-36 1-85-1-128-18-43-16-79-48-107-67-29-20-51-28-96-34l-5-1c-8-15-24-35-38-54-22-32-38-62-43-101s1-86 16-80 39 65 68 119c30 54 64 103 109 138s102 56 146 63c44 6 74-2 95-18 21-17 32-41 30-76-2-34-17-78-45-121-27-43-68-84-93-123-26-39-37-76-39-112s5-72 19-104c13-33 33-62 46-55 12 7 17 51 40 112 23 60 63 138 107 217 43 78 88 158 131 212s84 84 126 98c42 15 86 14 117 5s49-26 32-94c-17-67-69-184-115-292-45-108-84-206-93-264-8-59 14-77 42-49 29 29 64 105 110 201 46 97 102 214 147 301 45 88 80 146 119 177 40 30 85 32 120 16 34-16 58-51 67-98 10-47 6-106-19-197-25-92-70-216-104-297-33-81-55-119-72-145-17-27-29-42-19-39zm-1289 380c0 29 4 57 10 83 10 41 25 78 37 103 4 11 8 20 10 30 1 4 3 7 5 10 7 7 14 12 22 17 13 8 27 13 49 17 11 2 25 5 39 7-19-21-29-46-33-76-5-38 2-82 7-143 6-60 11-136 49-208 38-71 109-138 189-180 80-41 169-59 230-69 55-10 87-15 144-15h-1l-1-1h-3l-1-1h-3l-1-1h-3l-1-1h-2l-1-1h-2l-1-1h-3l-1-1h-2l-1-1h-2l-1-1h-2l-2-1h-2l-1-1h-2l-1-1h-3v-1h-3l-1-1h-1l-2-1h-3l-1-1h-2l-1-1h-1l-2-1h-2l-1-1h-2l-1-1h-2l-1-1h-2l-1-1h-2l-2-1h-1l-1-1h-2l-1-1h-2l-1-1h-2l-1-1h-2c-51-17-104-38-170-38s-145 19-210 49c-65 29-117 69-156 109-39 41-66 84-87 131-21 48-37 101-43 150-2 14-3 28-3 42v8z"/>
    <path class="fil6" d="m15468 19435c-87 29-151 32-213 23-68-9-134-32-176-65-43-32-62-74-97-100-34-25-85-34-130-48s-85-32-142-28c-56 5-129 34-224 59s-211 46-286 49-108-11-127-33-25-52-11-84c15-33 49-68 133-118 83-51 217-116 298-157 82-41 112-59 152-72 40-12 91-20 125-32s52-29 12-30c-39-2-136 11-221 36-85 26-158 63-236 113-78 51-162 113-225 176-62 63-103 126-149 166-47 39-100 56-144 52s-80-28-95-59c-16-32-11-70 16-126 28-55 79-126 137-201 59-75 125-154 172-208 47-55 76-86 44-54-33 31-127 125-190 188-63 64-96 97-138 145-41 48-91 111-127 157-35 46-57 76-93 95-36 18-86 26-123 22-38-5-63-21-78-36s-19-28-40-23-59 28-101 34c-41 7-88-3-120-21-33-18-51-43-43-83 7-39 41-91 74-137 31-44 61-86 96-127 10-12 22-26 37-44 15-17 32-38 75-89 42-51 109-133 164-183s98-69 146-81c48-11 101-16 146-34s81-50 131-66c49-16 112-16 194-10s184 18 310 34c127 16 279 36 400 52 120 15 208 26 305 65 97 38 203 104 278 193 75 88 119 198 135 305 17 107 6 211-13 281-13 49-29 82-38 104z"/>
    <path class="fil8" d="m13053 19243c7 3 14 4 21 6 37 6 78 5 116-13 39-18 76-55 113-105 37-51 75-115 114-179 40-63 81-126 80-119s-45 83-79 148c-35 65-61 118-73 158-13 40-12 67-4 86 8 20 22 32 44 38s52 6 93-19 93-74 158-143c64-70 140-158 215-242 76-83 151-161 211-215s105-84 149-106c43-23 85-38 78-25-8 13-65 54-117 99-52 46-98 96-157 165-58 69-128 156-179 224-51 69-83 120-98 158s-14 64-6 85c8 22 22 38 51 43 28 4 69-4 119-43 49-40 107-112 192-194 84-83 196-177 290-232 95-56 172-73 240-69 67 4 123 29 146 46 1 1 3 2 4 3-44 1-134 14-213 37-85 26-158 63-236 113-78 51-162 113-225 176-62 63-103 126-149 166-47 39-100 56-144 52s-80-28-95-59c-16-32-11-70 16-126 28-55 79-126 137-201 59-75 125-154 172-208 47-55 76-86 44-54-33 31-127 125-190 188-63 64-96 97-138 145-41 48-91 111-127 157-35 46-57 76-93 95-36 18-86 26-123 22-38-5-63-21-78-36s-19-28-40-23-59 28-101 34c-41 7-88-3-120-21-7-3-13-7-18-12zm1691-406c-14 7-31 15-53 25-91 42-261 116-376 174s-174 100-206 133c-33 33-38 58-28 77s35 32 115 27 214-27 318-49c103-23 175-46 236-58 62-11 112-11 163 11 51 23 103 68 144 107s72 72 109 98c38 26 81 47 122 57 42 11 81 12 112-19 31-30 53-92 58-181 4-88-10-203-52-312s-112-213-217-303c-30-27-64-53-94-76 4 1 7 2 11 4 97 38 203 104 278 193 75 88 119 198 135 305 17 107 6 211-13 281-13 49-29 82-38 104-87 29-151 32-213 23-68-9-134-32-176-65-43-32-62-74-97-100-34-25-85-34-130-48s-85-32-142-28c-56 5-129 34-224 59s-211 46-286 49-108-11-127-33-25-52-11-84c15-33 49-68 133-118 83-51 217-116 298-157 82-41 112-59 152-72 31-9 68-16 99-24z"/>
   <path class="fil3" d="m6395 12918c-52 15-105 29-157 43-32 12-40 31-33 56l977 6481c5 35 28 85 76 57l114-69c38-24 32-66 23-128l-955-6411c-3-34-13-38-45-29z"/>
   <path class="fil10" d="m7114 19662l-972-6610c-7-46-32-84-80-83l-128 3c-253 542-433 1108-535 1680-110 623-129 1252-49 1866 149 1148 643 2240 1522 3123l82 18c42 10 99 11 160 3z"/>
   <path class="fil3" d="m3849 17557l880 119c-104 725-161 1471-185 2232l556-48-101-415 1922 506-2857 536-1722-511 1337-333c-15-672 47-1364 170-2086z"/>
   <path class="fil11" d="m11109 18970c-31-51-50-78-73-85-23-6-50 9-54 28-4 18 14 41 34 71 16 24 33 53 42 80l114 7c-22-34-45-72-63-101zm480 127c-29-58-68-141-99-206-36-75-62-126-86-143-25-17-47 1-40 43 8 42 45 109 73 163 28 55 47 96 56 130l2 8 94 5zm462 29c-27-39-57-89-94-149-42-70-92-152-124-203s-45-71-41-58c3 13 22 58 42 113 21 55 42 120 56 173 13 47 21 86 23 116l138 8zm1702-99c-41 48-91 111-127 157-11 14-21 27-30 39l108 7c2-21 10-45 24-73 28-55 79-126 137-201 59-75 125-154 172-208 47-55 76-86 44-54-33 31-127 125-190 188-63 64-96 97-138 145zm808-192c-85 26-158 63-236 113-78 51-162 113-225 176-43 44-76 88-107 124l62 3c-2-13 1-28 7-43 15-33 49-68 133-118 83-51 217-116 298-157 82-41 112-59 152-72 31-9 68-16 99-24 9-3 18-5 26-8 34-12 52-29 12-30-2-1-5-1-8-1-44 1-134 14-213 37zm291 410c-45-14-85-32-142-28-56 5-175 46-224 59s-28 6-31 7l423 26 91 12 62 82 68 4c-7-5-14-9-20-14-43-32-62-74-97-100-34-25-85-34-130-48z"/>
   <path class="fil12" d="m11397 18350h-1c-13 6-26 11-49 16-22 4-55 9-81 10-27 2-48 1-78-4-31-6-71-15-113-27-10-3-21-6-31-9l-15-5c-26-9-53-19-82-26-18-6-30-9-52-10h-3c-11-2-22-2-33-2-66 0-145 19-210 49-65 29-117 68-156 109s-66 84-87 131c-21 48-37 101-43 150-6 48-2 93 7 134 10 39 24 75 35 101 6 16 10 30 13 39 0 5 0 11-1 17-10 2-42 0-136-6-137-9-410-25-639-38-230-14-415-26-584-67-9-2-18-4-27-7-7-26-15-64-34-128-27-90-73-231-110-378-38-146-66-298-60-424 7-126 49-225 120-305 72-81 173-143 224-201s51-114 113-237c61-123 185-315 310-516 126-201 254-410 342-577 88-166 137-289 188-404 50-115 103-221 198-329s232-218 373-359 286-313 419-441c132-128 251-212 407-278 157-66 351-115 477-170 125-55 183-116 302-172 119-55 300-103 418-131 119-28 175-36 206-62 32-25 38-68 49-111s27-86 29-138v-11c6 46 11 103 24 157 14 60 37 119 68 176 30 56 67 112 141 192 73 79 182 184 275 270 93 85 171 151 217 187s62 41 97 19 90-71 173-139 193-154 296-247c104-92 200-191 267-272s105-143 128-197c24-54 34-100 38-145l3-54 31 1c6 13 12 25 18 37 15 31 25 56 46 74s53 27 81 37c29 9 54 18 79 36 25 17 49 44 94 59 45 16 110 20 207 41s226 58 325 84c100 26 171 41 258 74 88 33 193 84 371 169 179 84 431 201 629 310s341 211 423 286 101 123 142 189 103 150 280 425c178 274 471 739 669 1044 199 304 302 447 373 545 71 99 108 151 142 236s65 202 97 300 65 178 94 280c29 103 53 228 44 361-9 132-51 271-87 400s-67 248-101 334c-35 86-72 139-120 180-47 40-104 69-197 87-92 17-220 24-559 69-338 45-887 129-1220 173s-450 49-527 48-115-8-242 12c-126 20-342 66-465 88-95 17-133 20-146 11 5-27 10-51 16-73 7-18 15-40 22-66 19-70 30-174 13-281-16-107-60-217-135-305-75-89-181-155-278-193-97-39-185-50-305-65-121-16-273-36-400-52-126-16-228-28-310-34-60-4-109-5-151 0-9 1-17 3-25 5-9 2-18 5-27 8-22 8-43 20-62 31-13 8-27 15-38 21-19 9-34 15-58 21-19 5-44 10-69 16-14 3-27 5-41 8-48 12-91 31-146 81s-122 132-164 183l-32 37v1l-26 31-1 1-1 1-1 1v1l-14 16c-15 18-27 32-37 44l-6 7v1c-8 8-15 16-21 21-4 4-7 7-10 9-15 5-49 9-141 11-65 2-161 3-258 3l-50-1c-120-1-207-2-266-5s-89-6-105-7h-4c-21-5-25-13-31-24-5-10-11-21-17-34v-1l-7-13c-6-14-13-30-21-47l-3-5c-18-40-35-82-57-121s-48-75-81-115c-32-39-72-82-125-125-54-44-120-88-174-112s-96-28-155-27c-46 0-104 3-145 5l-20 1c-15 1-28 1-39 2-8-2-9-6-12-17-4-19-12-57-26-134-13-78-31-195-42-297-12-103-16-190-20-245-5-55-9-79-18-71-8 7-20 46-28 86-8 39-13 78-19 117-7 40-15 79-38 118-23 40-61 78-93 106-31 27-56 44-72 62s-24 38-43 60c-20 21-51 44-59 57-9 14 4 17 37 24s86 18 135 32c49 13 94 29 132 48 39 19 69 41 87 55 9 8 14 13 14 18z"/>
   <path class="fil13" d="m14902 13776c24 43 67 120 88 196 22 76 22 151 7 257-16 107-47 245-83 359-35 114-76 204-110 300-33 95-60 195-78 280-17 85-26 155-79 141-54-13-152-109-246-173-93-64-183-96-248-96-65-1-106 30-116 14s11-79 22-122 13-66-12-99c-25-34-76-78-135-111-60-33-128-55-180-55-52 1-87 24-134 75-48 51-107 131-127 189-19 58 2 94 12 116 11 23 11 32-14 52s-74 50-125 95c-51 44-103 101-120 101s1-57-13-67-59 27-54 11c4-16 58-85 145-192s207-251 284-337c77-85 110-112 137-122 28-10 50-3 90 25 39 28 97 77 176 142s179 146 265 204c85 58 157 93 222 123s124 54 162 49 55-39 97-157c42-119 108-322 155-471 46-148 72-243 76-337s-15-186-39-267c-25-80-56-149-67-177-11-29-2-18 5-8s12 19 37 62zm1716 1256c-10 88-52 280-72 440-19 160-17 288-21 390-3 103-12 180 25 185 36 6 118-60 164-86 46-25 57-10 24 92-33 101-110 289-160 463-49 174-71 335-82 455s-11 200 2 218c13 19 40-23 87-127 47-105 116-273 157-265 40 8 54 191 46 362s-37 329-45 426c-9 97 2 133 47 128 45-4 125-48 176-48 52 0 77 44 121 58s108-1 194-68c86-68 194-187 295-269 102-83 196-129 192-104s-108 122-153 182c-46 60-32 82 23 65 55-16 152-72 264-110 113-39 241-61 366-70 126-8 250-4 347 24 97 27 167 78 151 99-17 21-121 12-266 9-146-4-333-2-558 49s-487 150-694 232c-208 81-360 145-493 214-134 68-248 141-317 184-68 43-90 56-127 60-38 5-91 0-81-18 10-19 83-52 118-158s33-285 21-468-34-370-22-579c12-210 58-441 84-641 25-199 29-367 38-534 9-166 22-331 42-472 20-142 46-258 71-325 24-66 46-81 36 7zm-5745 346c14 0 31 218 74 386s112 284 172 190c61-95 114-402 137-420 23-19 16 250 9 495-8 244-17 465 5 678 22 212 75 417 141 602 66 184 146 347 332 391s480-31 592 8c113 38 44 190-18 337-61 147-116 288-102 339 14 52 98 15 237-186 139-200 333-564 483-881 149-317 255-586 245-513-10 72-135 487-268 818-134 331-275 578-348 750-72 172-77 269-55 342s71 121 172 143c102 22 256 18 425-76 168-93 351-276 498-355 124-67 221-59 278-9-20 8-38 18-56 28-13 8-27 15-38 21-19 9-34 15-58 21-19 5-44 10-69 16-14 3-27 5-41 8-48 12-91 31-146 81s-122 132-164 183l-32 37v1l-26 31-1 1-1 1-1 1v1l-14 16c-15 18-27 32-37 44l-6 7v1c-8 8-15 16-21 21-4 4-7 7-10 9-15 5-49 9-141 11-65 2-161 3-258 3l-50-1c-120-1-207-2-266-5s-89-6-105-7h-4c-21-5-25-13-31-24-5-10-11-21-17-34v-1l-7-13c-6-14-13-30-21-47l-3-5c-18-40-35-82-57-121s-48-75-81-115c-32-39-72-82-125-125-54-44-120-88-174-112s-96-28-155-27c-46 0-104 3-145 5l-20 1c-15 1-28 1-39 2-8-2-9-6-12-17-4-19-12-57-26-134-13-78-31-195-42-297-12-103-16-190-20-245-5-55-9-79-18-71-8 7-20 46-28 86-8 39-13 78-19 117-7 40-15 79-38 118-23 40-61 78-93 106-31 27-56 44-72 62s-24 38-43 60c-20 21-51 44-59 57v1c-30-7-50-11-69-16-29-8-53-18-79-38-26-19-54-49-62-116-8-68 4-173 26-252 23-79 56-131 97-115 42 16 91 100 133 162 41 62 74 103 111 86 37-18 78-94 97-180 19-85 17-180-9-358-26-179-75-441-108-630-34-188-50-303-95-441-45-139-119-301-152-491-32-190-22-407-9-407zm-1842 3527c2 11 4 20 7 28l3 9 509 31c30 2 60 4 92 6 165 9 354 21 497 29-48-31-82-67-95-101-24-65 33-120 14-191-20-70-117-156-230-271-112-115-240-258-299-283-58-26-47 67 37 167 84 101 240 209 316 296s72 153 22 185c-49 32-144 30-271-9-127-38-285-113-345-222-60-110-20-253-42-267-22-15-106 100-164 121-59 21-92-52-95-181s23-314 72-445c48-131 119-209 198-285 80-76 168-151 222-219s74-130-101-89c-28 6-62 16-99 28-57 116-59 170-108 227-51 58-152 120-224 201-71 80-113 179-120 305-6 126 22 278 60 424 37 145 82 285 109 374v3h1v1l1 3v3l1 3 1 2 1 3 1 3v3l1 3 1 2 1 3 1 3v2l1 3 1 2v3l1 2 1 3v2l1 2 1 3v2l1 2v2l1 3 1 2v2l1 2v2l1 2v2l1 2v2l1 2v2l1 2v2l1 1v2l1 2v4l1 1v2l1 2v3l1 1v2l1 1v4l1 1v3l1 1v3l1 1v3l1 1v3l1 1zm1474-466c-4-30 5-45 27-62 38-29 112-66 188-90 75-23 152-32 217-38 65-5 118-7 179-5 42 2 88 5 106 3 27 9 52 19 74 30 39 19 69 41 87 55 9 8 14 13 14 18h-1c-13 6-26 11-49 16-22 4-55 9-81 10-27 2-48 1-78-4-31-6-71-15-113-27-10-3-21-6-31-9l-15-5c-26-9-53-19-82-26-18-6-30-9-52-10h-3c-11-2-22-2-33-2-66 0-145 19-210 49-59 26-106 61-144 97zm5178 1007c28-15 58-30 92-44 167-70 419-126 763-182s780-113 1091-143 496-32 615-41 172-24 82-66c-91-42-324-110-517-183s-345-150-447-190c-101-39-152-42-224 11-71 53-164 161-239 237s-132 120-232 145c-101 24-244 28-228 2 17-27 193-84 318-169s197-197 303-272 245-112 480-61c235 52 565 193 798 244 232 51 367 11 436-63 70-74 74-182 15-316-60-135-183-296-172-306s156 132 238 161c81 30 99-51 124-86 26-34 59-21 66-93 6-73-14-232-56-390-41-157-105-314-175-439-69-126-144-221-100-209 26 8 95 53 190 153 32 83 61 190 90 281 32 98 65 178 94 280 29 103 53 228 44 361-9 132-51 271-87 400s-67 248-101 334c-35 86-72 139-120 180-47 40-104 69-197 87-92 17-220 24-559 69-338 45-887 129-1220 173s-450 49-527 48-115-8-242 12c-105 16-272 51-396 75z"/>
   <path class="fil14" d="m14044 14924c-2 15-5 30-8 47-6 21-11 41-12 56-11 55-24 111-33 154-16 71-24 106-30 127-6 20-10 25-3 47 8 21 28 59 50 149 22 91 46 234 89 643 42 409 103 1084 140 1516 33 387 47 579 58 716 1 7 2 13 3 19 1 7 2 12 0 17-1 3-2 5-5 7-78-9-145-17-202-21-82-6-145-6-194 10-50 16-86 48-131 66s-98 23-146 34c-48 12-91 31-146 81s-122 132-164 183c-43 51-60 72-75 89-15 18-27 32-37 44-5 6-10 12-15 19-3-20-2-46-2-75v-46c-13-154-19-385-7-743 13-367 44-868 77-1223s68-564 118-773c49-210 113-419 147-531 33-112 37-127 36-142 0-15-4-31-4-46 1-15 6-28 13-39 8-12 18-21 17-27 0-6-12-9-22-29-10-19-18-56-30-90-13-34-30-65-50-89l-1-1c7-11 5-20-2-36-11-22-32-58-12-116 19-58 79-138 126-189s83-74 134-75c52 0 121 22 180 55 60 33 110 77 135 111 10 13 16 24 18 36-2 19-5 41-10 65z"/>
   <path class="fil15" d="m13940 14736c-38-5-72-11-102-16-83-13-135-17-182 8-47 26-90 81-97 159-8 78 20 179 38 243 19 64 28 92 62 108s92 20 142 26c49 5 89 11 136 31 8 3 16 7 25 11l-1 2c-6 20-10 25-3 47 8 21 28 59 50 149 22 91 46 234 89 643 3 34 7 71 11 108-30-142-60-288-85-404-76-345-112-425-165-469s-123-53-177-45-91 33-108 119c-16 86-12 233-28 414-15 180-50 394-72 388-21-6-28-232-38-425l-1-19c32-113 62-213 82-278 33-112 37-127 36-142 0-15-4-31-4-46 1-15 6-28 13-39 8-12 18-21 17-27 0-6-12-9-22-29-10-19-18-56-30-90-13-34-30-65-50-89l-1-1c7-11 5-20-2-36-11-22-32-58-12-116 19-58 79-138 126-189s83-74 134-75c52 0 121 22 180 55 14 7 27 15 39 24z"/>
   <path class="fil3" d="m13868 19875l-5896-394-79 181-19 16 5942 389 52-192zm651 213l710-450-655 285-354-24-52 179 351 10z"/>
</svg>
