<?xml version="1.0" encoding="UTF-8"?>
<svg viewBox="0 0 800 602.07922" xmlns="http://www.w3.org/2000/svg" xmlns:xlink="http://www.w3.org/1999/xlink">
 <defs>
  <clipPath id="f">
   <path transform="matrix(.94536,-.32603,.03972,.99921,0,0)" d="m581.25071-267.47305h9.29765a.79624,.79624 0 0,1 .79624.79624v31.09213a.79624,.79624 0 0,1 -.79624.79624h-9.29765a.79624,.79624 0 0,1 -.79624-.79624v-31.09213a.79624,.79624 0 0,1 .79624-.79624"/>
  </clipPath>
  <clipPath id="ak">
   <path d="m540.41-456.38 7.7096-1.8037 0.33003 4.67 4.1364-1.0619 1.1062 18.878-4.2067 1.2486 0.2913 3.8772-7.7468 1.8367c-0.51964 0.1228-0.95687-0.0806-0.97873-0.45373l-1.541-26.298c-0.0219-0.3731 0.37945-0.77147 0.8998-0.89321z"/>
  </clipPath>
  <filter id="af">
   <feGaussianBlur stdDeviation="2.94687"/>
  </filter>
  <filter id="ab">
   <feGaussianBlur stdDeviation=".6334"/>
  </filter>
  <filter id="aa">
   <feGaussianBlur stdDeviation=".94021"/>
  </filter>
  <filter id="y">
   <feGaussianBlur stdDeviation=".22018"/>
  </filter>
  <filter id="x">
   <feGaussianBlur stdDeviation=".23868"/>
  </filter>
  <filter id="b"/>
  <filter id="ah" x="-.07671" y="-.27542" width="1.1534" height="1.5508">
   <feGaussianBlur stdDeviation="20.82051"/>
  </filter>
  <filter id="ag" x="-.07526" y="-.20135" width="1.1505" height="1.4027">
   <feGaussianBlur stdDeviation="1.89528"/>
  </filter>
  <filter id="ae" x="-.07203" y="-.22882" width="1.144" height="1.4576">
   <feGaussianBlur stdDeviation="23.25905"/>
  </filter>
  <filter id="ad" x="-.13287" y="-.29187" width="1.2657" height="1.5837">
   <feGaussianBlur stdDeviation=".49373"/>
  </filter>
  <filter id="ac" x="-.12798" y="-.38509" width="1.256" height="1.7702">
   <feGaussianBlur stdDeviation="6.61039"/>
  </filter>
  <filter id="z" x="-.10807" y="-.00621" width="1.2161" height="1.0124">
   <feGaussianBlur stdDeviation=".46579"/>
  </filter>
  <filter id="aj" x="-.04148" y="-.12759" width="1.083" height="1.2552">
   <feGaussianBlur stdDeviation="8.06597"/>
  </filter>
  <filter id="ai" x="-.16477" y="-.09057" width="1.3295" height="1.1811">
   <feGaussianBlur stdDeviation="12.27681"/>
  </filter>
  <linearGradient id="a">
   <stop stop-color="#b3b3b3" offset="0"/>
   <stop stop-color="#b3b3b3" stop-opacity="0" offset="1"/>
  </linearGradient>
  <linearGradient id="d">
   <stop stop-color="#4d4d4d" offset="0"/>
   <stop stop-color="#4d4d4d" stop-opacity="0" offset="1"/>
  </linearGradient>
  <linearGradient id="w" x1="367.87" x2="392.88" y1="-419.71" y2="-341.64" gradientUnits="userSpaceOnUse">
   <stop stop-color="#707272" offset="0"/>
   <stop stop-color="#1a1a1a" offset="1"/>
  </linearGradient>
  <linearGradient id="v" x1="425.14" x2="297.07" y1="-347.27" y2="-335.26" gradientUnits="userSpaceOnUse">
   <stop stop-color="#292929" offset="0"/>
   <stop stop-color="#3b3b3b" offset=".65262"/>
   <stop stop-color="#b3b3b3" offset="1"/>
  </linearGradient>
  <linearGradient id="u" x1="90.726" x2="87.457" y1="-376.54" y2="-360.25" gradientUnits="userSpaceOnUse">
   <stop stop-color="#4b4944" offset="0"/>
   <stop stop-color="#b3b3b3" offset=".71651"/>
   <stop stop-color="#b3b3b3" offset="1"/>
  </linearGradient>
  <linearGradient id="t" x1="790.11" x2="744.34" y1="-511.65" y2="-498.98" gradientTransform="matrix(1 0 0 .81759 -93.498 -78.616)" gradientUnits="userSpaceOnUse">
   <stop stop-color="#a4a4a4" stop-opacity=".47321" offset="0"/>
   <stop stop-color="#666" stop-opacity="0" offset="1"/>
  </linearGradient>
  <linearGradient id="s" x1="731.99" x2="795.57" y1="-509.45" y2="-488.11" gradientTransform="matrix(1 0 0 .81759 -92.889 -78.782)" gradientUnits="userSpaceOnUse">
   <stop stop-color="#fff" stop-opacity="0" offset="0"/>
   <stop stop-color="#fff" stop-opacity=".625" offset=".37144"/>
   <stop stop-opacity="0" offset="1"/>
  </linearGradient>
  <linearGradient id="r" x1="271.52" x2="638.76" y1="-253.26" y2="-248.81" gradientUnits="userSpaceOnUse">
   <stop stop-color="#333" offset="0"/>
   <stop stop-color="#fff" offset=".87372"/>
   <stop stop-color="#333" offset="1"/>
  </linearGradient>
  <linearGradient id="e" x1="588.67" x2="580.69" y1="-112.24" y2="-100.4" gradientUnits="userSpaceOnUse">
   <stop stop-color="#767674" offset="0"/>
   <stop stop-color="#646464" offset=".92457"/>
   <stop stop-color="#ababab" offset="1"/>
  </linearGradient>
  <linearGradient id="q" x1="547.57" x2="607.61" gradientUnits="userSpaceOnUse">
   <stop stop-color="#808080" offset="0"/>
   <stop stop-color="#808080" stop-opacity="0" offset="1"/>
  </linearGradient>
  <linearGradient id="j" x1="-82.255" x2="173.33" y1="-750.33" y2="-734.07" gradientUnits="userSpaceOnUse">
   <stop stop-color="#bdbbbd" stop-opacity=".94643" offset="0"/>
   <stop stop-color="#808080" stop-opacity="0" offset="1"/>
  </linearGradient>
  <linearGradient id="i" x1="-140.68" x2="423.76" y1="-768.55" y2="-847.87" gradientUnits="userSpaceOnUse">
   <stop stop-color="#f4f4f4" offset="0"/>
   <stop stop-color="#70726d" offset=".20985"/>
   <stop stop-color="#919191" offset=".92389"/>
   <stop stop-color="#303030" offset="1"/>
  </linearGradient>
  <linearGradient id="p" x1="649.27" x2="656.61" y1="-21.48" y2="-25.434" gradientUnits="userSpaceOnUse" xlink:href="#d"/>
  <linearGradient id="o" x1="355.94" x2="355.96" y1="-569.87" y2="-545.46" gradientTransform="matrix(.2951 -.07815 .03608 .13017 93.934 -522.73)" gradientUnits="userSpaceOnUse" xlink:href="#a"/>
  <linearGradient id="n" x1="353.44" x2="355.96" y1="-564.65" y2="-545.46" gradientUnits="userSpaceOnUse" xlink:href="#a"/>
  <linearGradient id="m" x1="355.94" x2="355.96" y1="-569.87" y2="-545.46" gradientTransform="matrix(.2951 -.07815 .03608 .13017 111.03 -526.9)" gradientUnits="userSpaceOnUse" xlink:href="#a"/>
  <linearGradient id="l" x1="355.94" x2="355.96" y1="-569.87" y2="-545.46" gradientTransform="matrix(.2951 -.07815 .03608 .13017 128.13 -530.92)" gradientUnits="userSpaceOnUse" xlink:href="#a"/>
  <linearGradient id="k" x1="355.94" x2="355.96" y1="-569.87" y2="-545.46" gradientTransform="matrix(.2951 -.07815 .03608 .13017 145.23 -534.94)" gradientUnits="userSpaceOnUse" xlink:href="#a"/>
  <radialGradient id="c" cx="553.28" cy="-365.92" r="3.4373" gradientTransform="matrix(.0748 -1.1143 2.6134 .17542 1470.5 315.65)" gradientUnits="userSpaceOnUse">
   <stop stop-color="#bf9f00" offset="0"/>
   <stop stop-color="#5d4000" offset="1"/>
  </radialGradient>
  <radialGradient id="g" cx="359.52" cy="-562.49" r="10.394" gradientTransform="matrix(.7114 -1.4117 2.1405 1.0787 1309 558.06)" gradientUnits="userSpaceOnUse">
   <stop stop-color="#d4d6d4" offset="0"/>
   <stop stop-color="#6b6b6b" offset="1"/>
  </radialGradient>
  <radialGradient id="h" cx="751.66" cy="-530.22" r="61.965" gradientTransform="matrix(.98054 .22175 -.13293 .38076 -150.68 -474.09)" gradientUnits="userSpaceOnUse" xlink:href="#d"/>
 </defs>
 <g transform="matrix(.72903 0 0 .72903 250.14 789.96)">
  <g transform="translate(-45.515 -13.004)">
   <path d="m456.32-656.83 262.58 82.759-22.649 17.908s-54.843 20.859-133.39-3.7446c-85.123-26.662-241.02-65.888-241.02-65.888z" fill="#333" filter="url(#aj)" opacity=".80531" stroke="#000" stroke-linecap="square" stroke-width=".5"/>
   <g transform="translate(79.65 -421.6)">
    <path d="m417.95-509.81 180.64 22.942c6.4209 1.3574 9.8685 1.5616 9.9439 10.372l8.0552 203.26c0.25 6.7602 3.8506 9.3446 5.1006 16.514l3.9687 102.69-207.51-65.596z"/>
    <path d="m286.29-515.53 0.18213 304.51 254.19 76.533c21.741 6.3722 83.609-4.0564 85-19.639 0 0-3.9687-99.036-3.9687-104.04 1.4897 27.986-51.687 27.853-79.417 16.487-5.3595-3.142-6.6737-8.6819-6.2916-13.877l-7.1891-195.92c-0.85041-13.342 3.7961-17.876 40.82-28.492 14.611-4.1895 29.592-6.3171 29.592-6.3171l-240.09-50.896s-9.446-3.0825-35.736 3.6634-36.403 8.7929-37.098 17.989z" fill="#333"/>
    <path transform="matrix(.94536,-.32603,.03972,.99921,0,0)" d="m581-270.4h63.755a6.5161 6.5161 0 0 1 6.5161 6.5161v200.17a6.5161 6.5161 0 0 1 -6.5161 6.5161h-63.755a6.5161 6.5161 0 0 1 -6.5161 -6.5161v-200.17a6.5161 6.5161 0 0 1 6.5161 -6.5161" fill="#ccc"/>
    <path transform="matrix(.94536,-.32603,.03972,.99921,0,0)" d="m616.22-265.1h28.526c1.5393 0 2.7785 1.2392 2.7785 2.7785v198.34c0 1.5393-1.2392 2.7785-2.7785 2.7785h-28.526" fill="#4d4d4d"/>
    <path d="m569.24-466.45 28.105-8.6454c1.3914-0.428 2.5128 0.33236 2.5702 1.8705l7.3979 198.19c0.0574 1.5381-1.0167 3.1284-2.3629 3.6822l-27.778 11.428" fill="#b3b3b3" filter="url(#ab)"/>
    <path transform="matrix(.94536,-.32603,.03972,.99921,.16368,.16368)" d="m639.34-247.76h1.0234a1.1594 1.1594 0 0 1 1.1594 1.1594v169.77a1.1594 1.1594 0 0 1 -1.1594 1.1594h-1.0234a1.1594 1.1594 0 0 1 -1.1594 -1.1594v-169.77a1.1594 1.1594 0 0 1 1.1594 -1.1594" fill="#fff" filter="url(#z)"/>
    <path transform="matrix(.94536,-.32603,.03972,.99921,0,0)" d="m638.41-248.99h1.0234a1.1594 1.1594 0 0 1 1.1594 1.1594v169.77a1.1594 1.1594 0 0 1 -1.1594 1.1594h-1.0234a1.1594 1.1594 0 0 1 -1.1594 -1.1594v-169.77a1.1594 1.1594 0 0 1 1.1594 -1.1594"/>
    <path transform="matrix(.6897 -.21271 0 .6897 185.18 144.62)" d="m589.91-448.93-11.881 0.96719 5.1031-10.773z" fill="#1a1a1a"/>
    <path transform="matrix(.93162,-.36344,.03979,.99921,0,0)" d="m628.39-67.938h10.476a1.8807 1.8807 0 0 1 1.8807 1.8807v14.744a1.8807 1.8807 0 0 1 -1.8807 1.8807h-10.476a1.8807 1.8807 0 0 1 -1.8807 -1.8807v-14.744a1.8807 1.8807 0 0 1 1.8807 -1.8807" fill="none" stroke="#dfdddb" stroke-width=".63342"/>
    <path transform="matrix(.93162,-.36344,.03979,.99921,0,0)" d="m628.22-68.162h10.476a1.8807 1.8807 0 0 1 1.8807 1.8807v14.744a1.8807 1.8807 0 0 1 -1.8807 1.8807h-10.476a1.8807 1.8807 0 0 1 -1.8807 -1.8807v-14.744a1.8807 1.8807 0 0 1 1.8807 -1.8807" fill="none" stroke="#1f1f1f" stroke-width=".63342"/>
    <path transform="matrix(.93162,-.36344,.03979,.99921,0,0)" d="m629.04-57.731h9.1243v1.1869h-9.1243z" fill="#1a1a1a"/>
    <text transform="skewY(339.18)" x="583.77399" y="-59.0051" fill="#1a1a1a" font-family="Segoe UI" font-size="3.5012" letter-spacing="0" word-spacing="0">
     <tspan x="583.77399" y="-59.0051">EJECT</tspan>
    </text>
    <path d="m286.29-515.53 0.18213 304.51 254.19 76.533c21.741 6.3722 83.609-4.0564 85-19.639 0 0-3.9687-99.036-3.9687-104.04 1.4897 27.986-51.687 27.853-79.417 16.487-5.3595-3.142-8.6737-8.6819-8.2916-13.877l-6.8085-185.55c-0.74509-6.731-0.0852-9.7223-8.5612-12.57z" fill="url(#r)"/>
    <g transform="translate(-.65473,.65473)" fill="#ccc" filter="url(#aa)">
     <path transform="matrix(.95578,.29409,0,1,0,0)" d="m312.24-320.87h31.863a1.2642 1.2642 0 0 1 1.2642 1.2642 1.2642 1.2642 0 0 1 -1.2642 1.2642h-31.863a1.2642 1.2642 0 0 1 -1.2642 -1.2642 1.2642 1.2642 0 0 1 1.2642 -1.2642" opacity=".94248"/>
     <path transform="matrix(.95578,.29409,0,1,0,0)" d="m312.24-327.11h31.863a1.2642 1.2642 0 0 1 1.2642 1.2642 1.2642 1.2642 0 0 1 -1.2642 1.2642h-31.863a1.2642 1.2642 0 0 1 -1.2642 -1.2642 1.2642 1.2642 0 0 1 1.2642 -1.2642" opacity=".94248"/>
     <path transform="matrix(.95578,.29409,0,1,0,0)" d="m312.24-333.35h31.863a1.2642 1.2642 0 0 1 1.2642 1.2642 1.2642 1.2642 0 0 1 -1.2642 1.2642h-31.863a1.2642 1.2642 0 0 1 -1.2642 -1.2642 1.2642 1.2642 0 0 1 1.2642 -1.2642" opacity=".94248"/>
     <path transform="matrix(.95578,.29409,0,1,0,0)" d="m312.24-339.59h31.863a1.2642 1.2642 0 0 1 1.2642 1.2642 1.2642 1.2642 0 0 1 -1.2642 1.2642h-31.863a1.2642 1.2642 0 0 1 -1.2642 -1.2642 1.2642 1.2642 0 0 1 1.2642 -1.2642" opacity=".94248"/>
     <path transform="matrix(.95578,.29409,0,1,0,0)" d="m312.24-345.83h31.863a1.2642 1.2642 0 0 1 1.2642 1.2642 1.2642 1.2642 0 0 1 -1.2642 1.2642h-31.863a1.2642 1.2642 0 0 1 -1.2642 -1.2642 1.2642 1.2642 0 0 1 1.2642 -1.2642" opacity=".94248"/>
     <path transform="matrix(.95578,.29409,0,1,0,0)" d="m312.24-352.08h31.863a1.2642 1.2642 0 0 1 1.2642 1.2642 1.2642 1.2642 0 0 1 -1.2642 1.2642h-31.863a1.2642 1.2642 0 0 1 -1.2642 -1.2642 1.2642 1.2642 0 0 1 1.2642 -1.2642" opacity=".94248"/>
     <path transform="matrix(.95578,.29409,0,1,0,0)" d="m312.24-358.32h31.863a1.2642 1.2642 0 0 1 1.2642 1.2642 1.2642 1.2642 0 0 1 -1.2642 1.2642h-31.863a1.2642 1.2642 0 0 1 -1.2642 -1.2642 1.2642 1.2642 0 0 1 1.2642 -1.2642" opacity=".94248"/>
     <path transform="matrix(.95578,.29409,0,1,0,0)" d="m312.24-364.56h31.863a1.2642 1.2642 0 0 1 1.2642 1.2642 1.2642 1.2642 0 0 1 -1.2642 1.2642h-31.863a1.2642 1.2642 0 0 1 -1.2642 -1.2642 1.2642 1.2642 0 0 1 1.2642 -1.2642" opacity=".94248"/>
     <path transform="matrix(.95578,.29409,0,1,0,0)" d="m312.24-370.8h31.863a1.2642 1.2642 0 0 1 1.2642 1.2642 1.2642 1.2642 0 0 1 -1.2642 1.2642h-31.863a1.2642 1.2642 0 0 1 -1.2642 -1.2642 1.2642 1.2642 0 0 1 1.2642 -1.2642" opacity=".94248"/>
     <path transform="matrix(.95578,.29409,0,1,0,0)" d="m312.24-377.04h31.863a1.2642 1.2642 0 0 1 1.2642 1.2642 1.2642 1.2642 0 0 1 -1.2642 1.2642h-31.863a1.2642 1.2642 0 0 1 -1.2642 -1.2642 1.2642 1.2642 0 0 1 1.2642 -1.2642" opacity=".94248"/>
     <path transform="matrix(.95578,.29409,0,1,0,0)" d="m312.24-383.28h31.863a1.2642 1.2642 0 0 1 1.2642 1.2642 1.2642 1.2642 0 0 1 -1.2642 1.2642h-31.863a1.2642 1.2642 0 0 1 -1.2642 -1.2642 1.2642 1.2642 0 0 1 1.2642 -1.2642" opacity=".94248"/>
     <path transform="matrix(.95578,.29409,0,1,0,0)" d="m312.24-389.53h31.863a1.2642 1.2642 0 0 1 1.2642 1.2642 1.2642 1.2642 0 0 1 -1.2642 1.2642h-31.863a1.2642 1.2642 0 0 1 -1.2642 -1.2642 1.2642 1.2642 0 0 1 1.2642 -1.2642" opacity=".94248"/>
     <path transform="matrix(.95578,.29409,0,1,0,0)" d="m312.24-395.77h31.863a1.2642 1.2642 0 0 1 1.2642 1.2642 1.2642 1.2642 0 0 1 -1.2642 1.2642h-31.863a1.2642 1.2642 0 0 1 -1.2642 -1.2642 1.2642 1.2642 0 0 1 1.2642 -1.2642" opacity=".94248"/>
     <path transform="matrix(.95578,.29409,0,1,0,0)" d="m312.24-402.01h31.863a1.2642 1.2642 0 0 1 1.2642 1.2642 1.2642 1.2642 0 0 1 -1.2642 1.2642h-31.863a1.2642 1.2642 0 0 1 -1.2642 -1.2642 1.2642 1.2642 0 0 1 1.2642 -1.2642" opacity=".94248"/>
     <path transform="matrix(.95578,.29409,0,1,0,0)" d="m312.24-408.25h31.863a1.2642 1.2642 0 0 1 1.2642 1.2642 1.2642 1.2642 0 0 1 -1.2642 1.2642h-31.863a1.2642 1.2642 0 0 1 -1.2642 -1.2642 1.2642 1.2642 0 0 1 1.2642 -1.2642" opacity=".94248"/>
     <path transform="matrix(.95578,.29409,0,1,0,0)" d="m312.24-414.49h31.863a1.2642 1.2642 0 0 1 1.2642 1.2642 1.2642 1.2642 0 0 1 -1.2642 1.2642h-31.863a1.2642 1.2642 0 0 1 -1.2642 -1.2642 1.2642 1.2642 0 0 1 1.2642 -1.2642" opacity=".94248"/>
     <path transform="matrix(.95578,.29409,0,1,0,0)" d="m351.96-320.97h31.863a1.2642 1.2642 0 0 1 1.2642 1.2642 1.2642 1.2642 0 0 1 -1.2642 1.2642h-31.863a1.2642 1.2642 0 0 1 -1.2642 -1.2642 1.2642 1.2642 0 0 1 1.2642 -1.2642" opacity=".94248"/>
     <path transform="matrix(.95578,.29409,0,1,0,0)" d="m351.96-327.22h31.863a1.2642 1.2642 0 0 1 1.2642 1.2642 1.2642 1.2642 0 0 1 -1.2642 1.2642h-31.863a1.2642 1.2642 0 0 1 -1.2642 -1.2642 1.2642 1.2642 0 0 1 1.2642 -1.2642" opacity=".94248"/>
     <path transform="matrix(.95578,.29409,0,1,0,0)" d="m351.96-333.46h31.863a1.2642 1.2642 0 0 1 1.2642 1.2642 1.2642 1.2642 0 0 1 -1.2642 1.2642h-31.863a1.2642 1.2642 0 0 1 -1.2642 -1.2642 1.2642 1.2642 0 0 1 1.2642 -1.2642" opacity=".94248"/>
     <path transform="matrix(.95578,.29409,0,1,0,0)" d="m351.96-339.7h31.863a1.2642 1.2642 0 0 1 1.2642 1.2642 1.2642 1.2642 0 0 1 -1.2642 1.2642h-31.863a1.2642 1.2642 0 0 1 -1.2642 -1.2642 1.2642 1.2642 0 0 1 1.2642 -1.2642" opacity=".94248"/>
     <path transform="matrix(.95578,.29409,0,1,0,0)" d="m351.96-345.94h31.863a1.2642 1.2642 0 0 1 1.2642 1.2642 1.2642 1.2642 0 0 1 -1.2642 1.2642h-31.863a1.2642 1.2642 0 0 1 -1.2642 -1.2642 1.2642 1.2642 0 0 1 1.2642 -1.2642" opacity=".94248"/>
     <path transform="matrix(.95578,.29409,0,1,0,0)" d="m351.96-352.18h31.863a1.2642 1.2642 0 0 1 1.2642 1.2642 1.2642 1.2642 0 0 1 -1.2642 1.2642h-31.863a1.2642 1.2642 0 0 1 -1.2642 -1.2642 1.2642 1.2642 0 0 1 1.2642 -1.2642" opacity=".94248"/>
     <path transform="matrix(.95578,.29409,0,1,0,0)" d="m351.96-358.42h31.863a1.2642 1.2642 0 0 1 1.2642 1.2642 1.2642 1.2642 0 0 1 -1.2642 1.2642h-31.863a1.2642 1.2642 0 0 1 -1.2642 -1.2642 1.2642 1.2642 0 0 1 1.2642 -1.2642" opacity=".94248"/>
     <path transform="matrix(.95578,.29409,0,1,0,0)" d="m351.96-364.67h31.863a1.2642 1.2642 0 0 1 1.2642 1.2642 1.2642 1.2642 0 0 1 -1.2642 1.2642h-31.863a1.2642 1.2642 0 0 1 -1.2642 -1.2642 1.2642 1.2642 0 0 1 1.2642 -1.2642" opacity=".94248"/>
     <path transform="matrix(.95578,.29409,0,1,0,0)" d="m351.96-370.91h31.863a1.2642 1.2642 0 0 1 1.2642 1.2642 1.2642 1.2642 0 0 1 -1.2642 1.2642h-31.863a1.2642 1.2642 0 0 1 -1.2642 -1.2642 1.2642 1.2642 0 0 1 1.2642 -1.2642" opacity=".94248"/>
     <path transform="matrix(.95578,.29409,0,1,0,0)" d="m351.96-377.15h31.863a1.2642 1.2642 0 0 1 1.2642 1.2642 1.2642 1.2642 0 0 1 -1.2642 1.2642h-31.863a1.2642 1.2642 0 0 1 -1.2642 -1.2642 1.2642 1.2642 0 0 1 1.2642 -1.2642" opacity=".94248"/>
     <path transform="matrix(.95578,.29409,0,1,0,0)" d="m351.96-383.39h31.863a1.2642 1.2642 0 0 1 1.2642 1.2642 1.2642 1.2642 0 0 1 -1.2642 1.2642h-31.863a1.2642 1.2642 0 0 1 -1.2642 -1.2642 1.2642 1.2642 0 0 1 1.2642 -1.2642" opacity=".94248"/>
     <path transform="matrix(.95578,.29409,0,1,0,0)" d="m351.96-389.63h31.863a1.2642 1.2642 0 0 1 1.2642 1.2642 1.2642 1.2642 0 0 1 -1.2642 1.2642h-31.863a1.2642 1.2642 0 0 1 -1.2642 -1.2642 1.2642 1.2642 0 0 1 1.2642 -1.2642" opacity=".94248"/>
     <path transform="matrix(.95578,.29409,0,1,0,0)" d="m351.96-395.88h31.863a1.2642 1.2642 0 0 1 1.2642 1.2642 1.2642 1.2642 0 0 1 -1.2642 1.2642h-31.863a1.2642 1.2642 0 0 1 -1.2642 -1.2642 1.2642 1.2642 0 0 1 1.2642 -1.2642" opacity=".94248"/>
     <path transform="matrix(.95578,.29409,0,1,0,0)" d="m351.96-402.12h31.863a1.2642 1.2642 0 0 1 1.2642 1.2642 1.2642 1.2642 0 0 1 -1.2642 1.2642h-31.863a1.2642 1.2642 0 0 1 -1.2642 -1.2642 1.2642 1.2642 0 0 1 1.2642 -1.2642" opacity=".94248"/>
     <path transform="matrix(.95578,.29409,0,1,0,0)" d="m351.96-408.36h31.863a1.2642 1.2642 0 0 1 1.2642 1.2642 1.2642 1.2642 0 0 1 -1.2642 1.2642h-31.863a1.2642 1.2642 0 0 1 -1.2642 -1.2642 1.2642 1.2642 0 0 1 1.2642 -1.2642" opacity=".94248"/>
     <path transform="matrix(.95578,.29409,0,1,0,0)" d="m351.96-414.6h31.863a1.2642 1.2642 0 0 1 1.2642 1.2642 1.2642 1.2642 0 0 1 -1.2642 1.2642h-31.863a1.2642 1.2642 0 0 1 -1.2642 -1.2642 1.2642 1.2642 0 0 1 1.2642 -1.2642" opacity=".94248"/>
    </g>
    <path transform="matrix(.95578,.29409,0,1,0,0)" d="m312.24-320.87h31.863a1.2642 1.2642 0 0 1 1.2642 1.2642 1.2642 1.2642 0 0 1 -1.2642 1.2642h-31.863a1.2642 1.2642 0 0 1 -1.2642 -1.2642 1.2642 1.2642 0 0 1 1.2642 -1.2642" fill="#1a1a1a" opacity=".94248"/>
    <path transform="matrix(.95578,.29409,0,1,0,0)" d="m312.24-327.11h31.863a1.2642 1.2642 0 0 1 1.2642 1.2642 1.2642 1.2642 0 0 1 -1.2642 1.2642h-31.863a1.2642 1.2642 0 0 1 -1.2642 -1.2642 1.2642 1.2642 0 0 1 1.2642 -1.2642" fill="#1a1a1a" opacity=".94248"/>
    <path transform="matrix(.95578,.29409,0,1,0,0)" d="m312.24-333.35h31.863a1.2642 1.2642 0 0 1 1.2642 1.2642 1.2642 1.2642 0 0 1 -1.2642 1.2642h-31.863a1.2642 1.2642 0 0 1 -1.2642 -1.2642 1.2642 1.2642 0 0 1 1.2642 -1.2642" fill="#1a1a1a" opacity=".94248"/>
    <path transform="matrix(.95578,.29409,0,1,0,0)" d="m312.24-339.59h31.863a1.2642 1.2642 0 0 1 1.2642 1.2642 1.2642 1.2642 0 0 1 -1.2642 1.2642h-31.863a1.2642 1.2642 0 0 1 -1.2642 -1.2642 1.2642 1.2642 0 0 1 1.2642 -1.2642" fill="#1a1a1a" opacity=".94248"/>
    <path transform="matrix(.95578,.29409,0,1,0,0)" d="m312.24-345.83h31.863a1.2642 1.2642 0 0 1 1.2642 1.2642 1.2642 1.2642 0 0 1 -1.2642 1.2642h-31.863a1.2642 1.2642 0 0 1 -1.2642 -1.2642 1.2642 1.2642 0 0 1 1.2642 -1.2642" fill="#1a1a1a" opacity=".94248"/>
    <path transform="matrix(.95578,.29409,0,1,0,0)" d="m312.24-352.08h31.863a1.2642 1.2642 0 0 1 1.2642 1.2642 1.2642 1.2642 0 0 1 -1.2642 1.2642h-31.863a1.2642 1.2642 0 0 1 -1.2642 -1.2642 1.2642 1.2642 0 0 1 1.2642 -1.2642" fill="#1a1a1a" opacity=".94248"/>
    <path transform="matrix(.95578,.29409,0,1,0,0)" d="m312.24-358.32h31.863a1.2642 1.2642 0 0 1 1.2642 1.2642 1.2642 1.2642 0 0 1 -1.2642 1.2642h-31.863a1.2642 1.2642 0 0 1 -1.2642 -1.2642 1.2642 1.2642 0 0 1 1.2642 -1.2642" fill="#1a1a1a" opacity=".94248"/>
    <path transform="matrix(.95578,.29409,0,1,0,0)" d="m312.24-364.56h31.863a1.2642 1.2642 0 0 1 1.2642 1.2642 1.2642 1.2642 0 0 1 -1.2642 1.2642h-31.863a1.2642 1.2642 0 0 1 -1.2642 -1.2642 1.2642 1.2642 0 0 1 1.2642 -1.2642" fill="#1a1a1a" opacity=".94248"/>
    <path transform="matrix(.95578,.29409,0,1,0,0)" d="m312.24-370.8h31.863a1.2642 1.2642 0 0 1 1.2642 1.2642 1.2642 1.2642 0 0 1 -1.2642 1.2642h-31.863a1.2642 1.2642 0 0 1 -1.2642 -1.2642 1.2642 1.2642 0 0 1 1.2642 -1.2642" fill="#1a1a1a" opacity=".94248"/>
    <path transform="matrix(.95578,.29409,0,1,0,0)" d="m312.24-377.04h31.863a1.2642 1.2642 0 0 1 1.2642 1.2642 1.2642 1.2642 0 0 1 -1.2642 1.2642h-31.863a1.2642 1.2642 0 0 1 -1.2642 -1.2642 1.2642 1.2642 0 0 1 1.2642 -1.2642" fill="#1a1a1a" opacity=".94248"/>
    <path transform="matrix(.95578,.29409,0,1,0,0)" d="m312.24-383.28h31.863a1.2642 1.2642 0 0 1 1.2642 1.2642 1.2642 1.2642 0 0 1 -1.2642 1.2642h-31.863a1.2642 1.2642 0 0 1 -1.2642 -1.2642 1.2642 1.2642 0 0 1 1.2642 -1.2642" fill="#1a1a1a" opacity=".94248"/>
    <path transform="matrix(.95578,.29409,0,1,0,0)" d="m312.24-389.53h31.863a1.2642 1.2642 0 0 1 1.2642 1.2642 1.2642 1.2642 0 0 1 -1.2642 1.2642h-31.863a1.2642 1.2642 0 0 1 -1.2642 -1.2642 1.2642 1.2642 0 0 1 1.2642 -1.2642" fill="#1a1a1a" opacity=".94248"/>
    <path transform="matrix(.95578,.29409,0,1,0,0)" d="m312.24-395.77h31.863a1.2642 1.2642 0 0 1 1.2642 1.2642 1.2642 1.2642 0 0 1 -1.2642 1.2642h-31.863a1.2642 1.2642 0 0 1 -1.2642 -1.2642 1.2642 1.2642 0 0 1 1.2642 -1.2642" fill="#1a1a1a" opacity=".94248"/>
    <path transform="matrix(.95578,.29409,0,1,0,0)" d="m312.24-402.01h31.863a1.2642 1.2642 0 0 1 1.2642 1.2642 1.2642 1.2642 0 0 1 -1.2642 1.2642h-31.863a1.2642 1.2642 0 0 1 -1.2642 -1.2642 1.2642 1.2642 0 0 1 1.2642 -1.2642" fill="#1a1a1a" opacity=".94248"/>
    <path transform="matrix(.95578,.29409,0,1,0,0)" d="m312.24-408.25h31.863a1.2642 1.2642 0 0 1 1.2642 1.2642 1.2642 1.2642 0 0 1 -1.2642 1.2642h-31.863a1.2642 1.2642 0 0 1 -1.2642 -1.2642 1.2642 1.2642 0 0 1 1.2642 -1.2642" fill="#1a1a1a" opacity=".94248"/>
    <path transform="matrix(.95578,.29409,0,1,0,0)" d="m312.24-414.49h31.863a1.2642 1.2642 0 0 1 1.2642 1.2642 1.2642 1.2642 0 0 1 -1.2642 1.2642h-31.863a1.2642 1.2642 0 0 1 -1.2642 -1.2642 1.2642 1.2642 0 0 1 1.2642 -1.2642" fill="#1a1a1a" opacity=".94248"/>
    <path transform="matrix(.95578,.29409,0,1,0,0)" d="m351.96-320.97h31.863a1.2642 1.2642 0 0 1 1.2642 1.2642 1.2642 1.2642 0 0 1 -1.2642 1.2642h-31.863a1.2642 1.2642 0 0 1 -1.2642 -1.2642 1.2642 1.2642 0 0 1 1.2642 -1.2642" fill="#1a1a1a" opacity=".94248"/>
    <path transform="matrix(.95578,.29409,0,1,0,0)" d="m351.96-327.22h31.863a1.2642 1.2642 0 0 1 1.2642 1.2642 1.2642 1.2642 0 0 1 -1.2642 1.2642h-31.863a1.2642 1.2642 0 0 1 -1.2642 -1.2642 1.2642 1.2642 0 0 1 1.2642 -1.2642" fill="#1a1a1a" opacity=".94248"/>
    <path transform="matrix(.95578,.29409,0,1,0,0)" d="m351.96-333.46h31.863a1.2642 1.2642 0 0 1 1.2642 1.2642 1.2642 1.2642 0 0 1 -1.2642 1.2642h-31.863a1.2642 1.2642 0 0 1 -1.2642 -1.2642 1.2642 1.2642 0 0 1 1.2642 -1.2642" fill="#1a1a1a" opacity=".94248"/>
    <path transform="matrix(.95578,.29409,0,1,0,0)" d="m351.96-339.7h31.863a1.2642 1.2642 0 0 1 1.2642 1.2642 1.2642 1.2642 0 0 1 -1.2642 1.2642h-31.863a1.2642 1.2642 0 0 1 -1.2642 -1.2642 1.2642 1.2642 0 0 1 1.2642 -1.2642" fill="#1a1a1a" opacity=".94248"/>
    <path transform="matrix(.95578,.29409,0,1,0,0)" d="m351.96-345.94h31.863a1.2642 1.2642 0 0 1 1.2642 1.2642 1.2642 1.2642 0 0 1 -1.2642 1.2642h-31.863a1.2642 1.2642 0 0 1 -1.2642 -1.2642 1.2642 1.2642 0 0 1 1.2642 -1.2642" fill="#1a1a1a" opacity=".94248"/>
    <path transform="matrix(.95578,.29409,0,1,0,0)" d="m351.96-352.18h31.863a1.2642 1.2642 0 0 1 1.2642 1.2642 1.2642 1.2642 0 0 1 -1.2642 1.2642h-31.863a1.2642 1.2642 0 0 1 -1.2642 -1.2642 1.2642 1.2642 0 0 1 1.2642 -1.2642" fill="#1a1a1a" opacity=".94248"/>
    <path transform="matrix(.95578,.29409,0,1,0,0)" d="m351.96-358.42h31.863a1.2642 1.2642 0 0 1 1.2642 1.2642 1.2642 1.2642 0 0 1 -1.2642 1.2642h-31.863a1.2642 1.2642 0 0 1 -1.2642 -1.2642 1.2642 1.2642 0 0 1 1.2642 -1.2642" fill="#1a1a1a" opacity=".94248"/>
    <path transform="matrix(.95578,.29409,0,1,0,0)" d="m351.96-364.67h31.863a1.2642 1.2642 0 0 1 1.2642 1.2642 1.2642 1.2642 0 0 1 -1.2642 1.2642h-31.863a1.2642 1.2642 0 0 1 -1.2642 -1.2642 1.2642 1.2642 0 0 1 1.2642 -1.2642" fill="#1a1a1a" opacity=".94248"/>
    <path transform="matrix(.95578,.29409,0,1,0,0)" d="m351.96-370.91h31.863a1.2642 1.2642 0 0 1 1.2642 1.2642 1.2642 1.2642 0 0 1 -1.2642 1.2642h-31.863a1.2642 1.2642 0 0 1 -1.2642 -1.2642 1.2642 1.2642 0 0 1 1.2642 -1.2642" fill="#1a1a1a" opacity=".94248"/>
    <path transform="matrix(.95578,.29409,0,1,0,0)" d="m351.96-377.15h31.863a1.2642 1.2642 0 0 1 1.2642 1.2642 1.2642 1.2642 0 0 1 -1.2642 1.2642h-31.863a1.2642 1.2642 0 0 1 -1.2642 -1.2642 1.2642 1.2642 0 0 1 1.2642 -1.2642" fill="#1a1a1a" opacity=".94248"/>
    <path transform="matrix(.95578,.29409,0,1,0,0)" d="m351.96-383.39h31.863a1.2642 1.2642 0 0 1 1.2642 1.2642 1.2642 1.2642 0 0 1 -1.2642 1.2642h-31.863a1.2642 1.2642 0 0 1 -1.2642 -1.2642 1.2642 1.2642 0 0 1 1.2642 -1.2642" fill="#1a1a1a" opacity=".94248"/>
    <path transform="matrix(.95578,.29409,0,1,0,0)" d="m351.96-389.63h31.863a1.2642 1.2642 0 0 1 1.2642 1.2642 1.2642 1.2642 0 0 1 -1.2642 1.2642h-31.863a1.2642 1.2642 0 0 1 -1.2642 -1.2642 1.2642 1.2642 0 0 1 1.2642 -1.2642" fill="#1a1a1a" opacity=".94248"/>
    <path transform="matrix(.95578,.29409,0,1,0,0)" d="m351.96-395.88h31.863a1.2642 1.2642 0 0 1 1.2642 1.2642 1.2642 1.2642 0 0 1 -1.2642 1.2642h-31.863a1.2642 1.2642 0 0 1 -1.2642 -1.2642 1.2642 1.2642 0 0 1 1.2642 -1.2642" fill="#1a1a1a" opacity=".94248"/>
    <path transform="matrix(.95578,.29409,0,1,0,0)" d="m351.96-402.12h31.863a1.2642 1.2642 0 0 1 1.2642 1.2642 1.2642 1.2642 0 0 1 -1.2642 1.2642h-31.863a1.2642 1.2642 0 0 1 -1.2642 -1.2642 1.2642 1.2642 0 0 1 1.2642 -1.2642" fill="#1a1a1a" opacity=".94248"/>
    <path transform="matrix(.95578,.29409,0,1,0,0)" d="m351.96-408.36h31.863a1.2642 1.2642 0 0 1 1.2642 1.2642 1.2642 1.2642 0 0 1 -1.2642 1.2642h-31.863a1.2642 1.2642 0 0 1 -1.2642 -1.2642 1.2642 1.2642 0 0 1 1.2642 -1.2642" fill="#1a1a1a" opacity=".94248"/>
    <path transform="matrix(.95578,.29409,0,1,0,0)" d="m351.96-414.6h31.863a1.2642 1.2642 0 0 1 1.2642 1.2642 1.2642 1.2642 0 0 1 -1.2642 1.2642h-31.863a1.2642 1.2642 0 0 1 -1.2642 -1.2642 1.2642 1.2642 0 0 1 1.2642 -1.2642" fill="#1a1a1a" opacity=".94248"/>
    <text transform="matrix(.81473 -.3347 0 1.2274 0 0)" x="715.24402" y="-21.86468" fill="#e6e6e6" font-family="Segoe UI" font-size="6.3486" letter-spacing="0" word-spacing="0">
     <tspan x="715.24402" y="-21.86468">DVD-RW</tspan>
    </text>
    <text transform="matrix(.81473 -.3347 0 1.2274 0 0)" x="715.04309" y="-22.05282" fill="#006680" font-family="Segoe UI" font-size="6.3486" letter-spacing="0" word-spacing="0">
     <tspan x="715.04309" y="-22.05282">DVD-RW</tspan>
    </text>
    <path transform="matrix(.94536,-.32603,.03972,.99921,0,-4)" d="m581.48816-118.22525h7.02745a.98401,.98401 0 0,1 .98401.98401v22.23017a.98401,.98401 0 0,1 -.98401.98401h-7.02745a.98401,.98401 0 0,1 -.98401-.98401v-22.23017a.98401,.98401 0 0,1 .98401-.98401" fill="#1a1a1a"/>
    <path transform="matrix(.94536,-.32603,.03972,.99921,0,-4)" d="m581.8119-117.52243h6.46864a.55397,.55397 0 0,1 .55397.55397v21.63166a.55397,.55397 0 0,1 -.55397.55397h-6.46864a.55397,.55397 0 0,1 -.55397-.55397v-21.63166a.55397,.55397 0 0,1 .55397-.55397" fill="url(#e)"/>
    <g transform="matrix(.69573 0 0 .69573 170.45 6.6678)" clip-path="url(#f)">
     <path transform="matrix(.95935,.28223,.03995,.9992,0,0)" d="m586.63-622.45h8.2741a0.0029369 0.0029369 0 0 1 0.00294 0.00294v22.363a0.0029369 0.0029369 0 0 1 -0.00294 0.00294h-8.2741a0.0029369 0.0029369 0 0 1 -0.00294 -0.00294v-22.363a0.0029369 0.0029369 0 0 1 0.00294 -0.00294" fill="#333"/>
     <path transform="matrix(.95935,.28223,.03995,.9992,0,0)" d="m585.42-620.95h7.0913a0.0029369 0.0029369 0 0 1 0.00294 0.00294v22.523a0.0029369 0.0029369 0 0 1 -0.00294 0.00294h-7.0913a0.0029369 0.0029369 0 0 1 -0.00294 -0.00294v-22.523a0.0029369 0.0029369 0 0 1 0.00294 -0.00294"/>
     <path transform="matrix(.94536,-.32603,.03972,.99921,0,0)" d="m586.03-262.35h2.5193a0.002954 0.002954 0 0 1 0.00295 0.00295v22.513a0.002954 0.002954 0 0 1 -0.00295 0.00295h-2.5193a0.002954 0.002954 0 0 1 -0.00295 -0.00295v-22.513a0.002954 0.002954 0 0 1 0.00295 -0.00295" fill="#1a1a1a"/>
     <path transform="matrix(.95935,.28223,.03995,.9992,0,0)" d="m585.49-616.8h6.2559a0.0029369 0.0029369 0 0 1 0.00294 0.00294v2.0245a0.0029369 0.0029369 0 0 1 -0.00294 0.00294h-6.2559a0.0029369 0.0029369 0 0 1 -0.00294 -0.00294v-2.0245a0.0029369 0.0029369 0 0 1 0.00294 -0.00294" fill="#808000"/>
     <path transform="matrix(.95935,.28223,.03995,.9992,0,0)" d="m585.32-612.75h6.2559a0.0029369 0.0029369 0 0 1 0.00294 0.00294v2.0245a0.0029369 0.0029369 0 0 1 -0.00294 0.00294h-6.2559a0.0029369 0.0029369 0 0 1 -0.00294 -0.00294v-2.0245a0.0029369 0.0029369 0 0 1 0.00294 -0.00294" fill="#808000"/>
     <path transform="matrix(.95935,.28223,.03995,.9992,0,0)" d="m585.16-608.7h6.2559a0.0029369 0.0029369 0 0 1 0.00294 0.00294v2.0245a0.0029369 0.0029369 0 0 1 -0.00294 0.00294h-6.2559a0.0029369 0.0029369 0 0 1 -0.00294 -0.00294v-2.0245a0.0029369 0.0029369 0 0 1 0.00294 -0.00294" fill="#808000"/>
     <path transform="matrix(.95935,.28223,.03995,.9992,0,0)" d="m584.99-604.65h6.2559a0.0029369 0.0029369 0 0 1 0.00294 0.00294v2.0245a0.0029369 0.0029369 0 0 1 -0.00294 0.00294h-6.2559a0.0029369 0.0029369 0 0 1 -0.00294 -0.00294v-2.0245a0.0029369 0.0029369 0 0 1 0.00294 -0.00294" fill="#808000"/>
    </g>
    <path d="m555.79-302.23 7.8096-2.6933 0.43697 10.992m0.29247 7.3574 0.50936 11.285-7.8096 2.6933" fill="none" stroke="#006680" stroke-width=".40652"/>
    <text transform="skewY(343.51)" x="555.89337" y="-122.08185" fill="#006680" font-family="Segoe UI" font-size="3.7175" letter-spacing="0" word-spacing="0">
     <tspan x="555.89337" y="-122.08185">USB</tspan>
    </text>
    <path transform="matrix(.94536 -.32603 .03972 .99921 1.2732 26.093)" d="m581.48816-118.22525h7.02745a.98401,.98401 0 0,1 .98401.98401v22.23017a.98401,.98401 0 0,1 -.98401.98401h-7.02745a.98401,.98401 0 0,1 -.98401-.98401v-22.23017a.98401,.98401 0 0,1 .98401-.98401" fill="#1a1a1a"/>
    <path transform="matrix(.94536 -.32603 .03972 .99921 1.2732 26.093)" d="m581.8119-117.52243h6.46864a.55397,.55397 0 0,1 .55397.55397v21.63166a.55397,.55397 0 0,1 -.55397.55397h-6.46864a.55397,.55397 0 0,1 -.55397-.55397v-21.63166a.55397,.55397 0 0,1 .55397-.55397" fill="url(#e)"/>
    <g transform="matrix(.69573 0 0 .69573 171.72 36.76)" clip-path="url(#f)">
     <path transform="matrix(.95935,.28223,.03995,.9992,0,0)" d="m586.63-622.45h8.2741a0.0029369 0.0029369 0 0 1 0.00294 0.00294v22.363a0.0029369 0.0029369 0 0 1 -0.00294 0.00294h-8.2741a0.0029369 0.0029369 0 0 1 -0.00294 -0.00294v-22.363a0.0029369 0.0029369 0 0 1 0.00294 -0.00294" fill="#333"/>
     <path transform="matrix(.95935,.28223,.03995,.9992,0,0)" d="m585.42-620.95h7.0913a0.0029369 0.0029369 0 0 1 0.00294 0.00294v22.523a0.0029369 0.0029369 0 0 1 -0.00294 0.00294h-7.0913a0.0029369 0.0029369 0 0 1 -0.00294 -0.00294v-22.523a0.0029369 0.0029369 0 0 1 0.00294 -0.00294"/>
     <path transform="matrix(.94536,-.32603,.03972,.99921,0,0)" d="m586.03-262.35h2.5193a0.002954 0.002954 0 0 1 0.00295 0.00295v22.513a0.002954 0.002954 0 0 1 -0.00295 0.00295h-2.5193a0.002954 0.002954 0 0 1 -0.00295 -0.00295v-22.513a0.002954 0.002954 0 0 1 0.00295 -0.00295" fill="#1a1a1a"/>
     <path transform="matrix(.95935,.28223,.03995,.9992,0,0)" d="m585.49-616.8h6.2559a0.0029369 0.0029369 0 0 1 0.00294 0.00294v2.0245a0.0029369 0.0029369 0 0 1 -0.00294 0.00294h-6.2559a0.0029369 0.0029369 0 0 1 -0.00294 -0.00294v-2.0245a0.0029369 0.0029369 0 0 1 0.00294 -0.00294" fill="#808000"/>
     <path transform="matrix(.95935,.28223,.03995,.9992,0,0)" d="m585.32-612.75h6.2559a0.0029369 0.0029369 0 0 1 0.00294 0.00294v2.0245a0.0029369 0.0029369 0 0 1 -0.00294 0.00294h-6.2559a0.0029369 0.0029369 0 0 1 -0.00294 -0.00294v-2.0245a0.0029369 0.0029369 0 0 1 0.00294 -0.00294" fill="#808000"/>
     <path transform="matrix(.95935,.28223,.03995,.9992,0,0)" d="m585.16-608.7h6.2559a0.0029369 0.0029369 0 0 1 0.00294 0.00294v2.0245a0.0029369 0.0029369 0 0 1 -0.00294 0.00294h-6.2559a0.0029369 0.0029369 0 0 1 -0.00294 -0.00294v-2.0245a0.0029369 0.0029369 0 0 1 0.00294 -0.00294" fill="#808000"/>
     <path transform="matrix(.95935,.28223,.03995,.9992,0,0)" d="m584.99-604.65h6.2559a0.0029369 0.0029369 0 0 1 0.00294 0.00294v2.0245a0.0029369 0.0029369 0 0 1 -0.00294 0.00294h-6.2559a0.0029369 0.0029369 0 0 1 -0.00294 -0.00294v-2.0245a0.0029369 0.0029369 0 0 1 0.00294 -0.00294" fill="#808000"/>
    </g>
    <path d="m568.90311-292.3809-.64216-.13646v.26453l-3.28223,1.19799 .63908-.90846c.0544-.0635.12555-.12001.19876-.14841l.53672-.19611c.0439.10899.16175.15621.30186.10507 .17726-.0647.32112-.26104.32112-.43836s-.14384-.2687-.32112-.20399c-.14011.0512-.25797.18434-.30186.32526l-.53043.19352c-.14376.0525-.29441.18633-.39029.31379 .003-.004.006-.008-.00015.00011l-.67805.96378c-.0543.0633-.1254.11969-.19856.14814l-.3713.13552c-.0492-.22734-.26582-.33307-.52565-.23825-.29624.10813-.53637.43591-.53637.73206s.24013.44873.53637.3406c.25989-.0949.47648-.35885.5257-.62232l.3648-.13315 .003-.001 .80686-.29448c.073-.0253.14404-.0203.19827.004l.67796.46881 5e-005,3e-005c.0959.0574.24659.0813.39037.0288l.5112-.1867v.21532l.64232-.23444v-.64227l-.64232.23444v.21503l-.51746.18863c-.0732.0253-.14445.0205-.19881-.003l-.63924-.44203 2.47958-.90502v.26497l.64216-.60517z" fill="#006680"/>
    <path transform="matrix(.94536,-.32603,.03972,.99921,0,0)" d="m581.69135-153.61391h7.02745a.98401,.98401 0 0,1 .98401.98401v22.23017a.98401,.98401 0 0,1 -.98401.98401h-7.02745a.98401,.98401 0 0,1 -.98401-.98401v-22.23017a.98401,.98401 0 0,1 .98401-.98401" fill="#1a1a1a"/>
    <path transform="matrix(.94536,-.32603,.03972,.99921,0,0)" d="m582.01509-152.91109h4.54702l.0328,3.85205 2.44281-.0764v15.52834l-2.49007.21453 .0373,3.20138-4.5698.0197c-.30652.001-.55397-.24707-.55397-.55397v-21.63166c0-.3069.24707-.55397.55397-.55397z" fill="#08090b"/>
    <g transform="matrix(.55756 0 0 .82191 243.52 32.556)" clip-path="url(#ak)">
     <path transform="matrix(.95935,.28223,.03995,.9992,0,0)" d="m586.63-622.45h8.2741a0.0029369 0.0029369 0 0 1 0.00294 0.00294v22.363a0.0029369 0.0029369 0 0 1 -0.00294 0.00294h-8.2741a0.0029369 0.0029369 0 0 1 -0.00294 -0.00294v-22.363a0.0029369 0.0029369 0 0 1 0.00294 -0.00294" fill="#333"/>
     <path transform="matrix(.95935,.28223,.03995,.9992,0,0)" d="m585.42-620.95h7.0913a0.0029369 0.0029369 0 0 1 0.00294 0.00294v22.523a0.0029369 0.0029369 0 0 1 -0.00294 0.00294h-7.0913a0.0029369 0.0029369 0 0 1 -0.00294 -0.00294v-22.523a0.0029369 0.0029369 0 0 1 0.00294 -0.00294"/>
     <path transform="matrix(.94536,-.32603,.03972,.99921,0,0)" d="m586.03-262.35h2.5193a0.002954 0.002954 0 0 1 0.00295 0.00295v22.513a0.002954 0.002954 0 0 1 -0.00295 0.00295h-2.5193a0.002954 0.002954 0 0 1 -0.00295 -0.00295v-22.513a0.002954 0.002954 0 0 1 0.00295 -0.00295" fill="#1a1a1a"/>
     <path transform="matrix(.95935,.28223,.03995,.9992,0,0)" d="m585.49-616.8h6.2559a0.0029369 0.0029369 0 0 1 0.00294 0.00294v2.0245a0.0029369 0.0029369 0 0 1 -0.00294 0.00294h-6.2559a0.0029369 0.0029369 0 0 1 -0.00294 -0.00294v-2.0245a0.0029369 0.0029369 0 0 1 0.00294 -0.00294" fill="#808000"/>
     <path transform="matrix(.95935,.28223,.03995,.9992,0,0)" d="m585.32-612.75h6.2559a0.0029369 0.0029369 0 0 1 0.00294 0.00294v2.0245a0.0029369 0.0029369 0 0 1 -0.00294 0.00294h-6.2559a0.0029369 0.0029369 0 0 1 -0.00294 -0.00294v-2.0245a0.0029369 0.0029369 0 0 1 0.00294 -0.00294" fill="#808000"/>
     <path transform="matrix(.95935,.28223,.03995,.9992,0,0)" d="m585.16-608.7h6.2559a0.0029369 0.0029369 0 0 1 0.00294 0.00294v2.0245a0.0029369 0.0029369 0 0 1 -0.00294 0.00294h-6.2559a0.0029369 0.0029369 0 0 1 -0.00294 -0.00294v-2.0245a0.0029369 0.0029369 0 0 1 0.00294 -0.00294" fill="#808000"/>
     <path transform="matrix(.95935,.28223,.03995,.9992,0,0)" d="m584.99-604.65h6.2559a0.0029369 0.0029369 0 0 1 0.00294 0.00294v2.0245a0.0029369 0.0029369 0 0 1 -0.00294 0.00294h-6.2559a0.0029369 0.0029369 0 0 1 -0.00294 -0.00294v-2.0245a0.0029369 0.0029369 0 0 1 0.00294 -0.00294" fill="#808000"/>
    </g>
    <text transform="skewY(343.51)" x="554.62024" y="-168.45876" fill="#006680" font-family="Segoe UI" font-size="3.7175" letter-spacing="0" word-spacing="0">
     <tspan x="554.62024" y="-168.45876">SATA</tspan>
    </text>
    <path transform="matrix(.94536 -.32603 .03972 .99921 4.1667 -5.0926)" d="m577.49475-215.5502h16.12607a.98401,.98401 0 0,1 .98401.98401v57.05098a.98401,.98401 0 0,1 -.98401.98401h-16.12607a.98401,.98401 0 0,1 -.98401-.98401v-57.05098a.98401,.98401 0 0,1 .98401-.98401" fill="#666" filter="url(#y)"/>
    <path transform="matrix(.94536 -.32603 .03972 .99921 4.1667 -5.0926)" d="m577.08923-215.45093h16.14051a.98401,.98401 0 0,1 .98401.98401v56.7082a.98401,.98401 0 0,1 -.98401.98401h-16.14051a.98401,.98401 0 0,1 -.98401-.98401v-56.7082a.98401,.98401 0 0,1 .98401-.98401" fill="#1a1a1a"/>
    <path transform="matrix(1.0014 .07786 -.07057 1.1048 -31.544 -1.0783)" d="m557.17-366.27c0 2.4408-1.5389 4.4194-3.4373 4.4194s-3.4373-1.9786-3.4373-4.4194 1.5389-4.4194 3.4373-4.4194 3.4373 1.9786 3.4373 4.4194z" fill="#668000"/>
    <path transform="matrix(.65478 .05091 -.04614 .72239 169.36 -126.23)" d="m557.17-366.27c0 2.4408-1.5389 4.4194-3.4373 4.4194s-3.4373-1.9786-3.4373-4.4194 1.5389-4.4194 3.4373-4.4194 3.4373 1.9786 3.4373 4.4194z" fill="#a80"/>
    <path transform="matrix(.50071 .03893 -.03529 .55241 258.64 -181.85)" d="m557.17-366.27c0 2.4408-1.5389 4.4194-3.4373 4.4194s-3.4373-1.9786-3.4373-4.4194 1.5389-4.4194 3.4373-4.4194 3.4373 1.9786 3.4373 4.4194z" fill="url(#c)"/>
    <path transform="matrix(1.0024 .06169 -.05592 1.1058 -27.219 -6.065)" d="m557.17-366.27c0 2.4408-1.5389 4.4194-3.4373 4.4194s-3.4373-1.9786-3.4373-4.4194 1.5389-4.4194 3.4373-4.4194 3.4373 1.9786 3.4373 4.4194z" fill="#c83737"/>
    <path transform="matrix(.65538 .04034 -.03656 .72305 172 -134.45)" d="m557.17-366.27c0 2.4408-1.5389 4.4194-3.4373 4.4194s-3.4373-1.9786-3.4373-4.4194 1.5389-4.4194 3.4373-4.4194 3.4373 1.9786 3.4373 4.4194z" fill="#a80"/>
    <path transform="matrix(.50118 .03084 -.02796 .55292 260.54 -191.5)" d="m557.17-366.27c0 2.4408-1.5389 4.4194-3.4373 4.4194s-3.4373-1.9786-3.4373-4.4194 1.5389-4.4194 3.4373-4.4194 3.4373 1.9786 3.4373 4.4194z" fill="url(#c)"/>
    <path transform="matrix(1.0001 .09588 -.08691 1.1034 -37.761 -41.084)" d="m557.17-366.27c0 2.4408-1.5389 4.4194-3.4373 4.4194s-3.4373-1.9786-3.4373-4.4194 1.5389-4.4194 3.4373-4.4194 3.4373 1.9786 3.4373 4.4194z"/>
    <path transform="matrix(.65394 .06269 -.05683 .72146 164.96 -162.6)" d="m557.17-366.27c0 2.4408-1.5389 4.4194-3.4373 4.4194s-3.4373-1.9786-3.4373-4.4194 1.5389-4.4194 3.4373-4.4194 3.4373 1.9786 3.4373 4.4194z" fill="#a80"/>
    <path transform="matrix(.50007 .04794 -.04345 .5517 255.06 -216.61)" d="m557.17-366.27c0 2.4408-1.5389 4.4194-3.4373 4.4194s-3.4373-1.9786-3.4373-4.4194 1.5389-4.4194 3.4373-4.4194 3.4373 1.9786 3.4373 4.4194z" fill="url(#c)"/>
    <text transform="matrix(-.02852 -.99503 .99623 -.30589 4.1667 -5.0926)" x="185.15514" y="559.4931" fill="#fff" font-family="Segoe UI" font-size="2.4089" letter-spacing="0" word-spacing="0">
     <tspan x="185.15514" y="559.4931">PHONE</tspan>
    </text>
    <text transform="matrix(-.02852 -.99503 .99623 -.30589 4.1667 -5.0926)" x="201.02579" y="559.25452" fill="#fff" font-family="Segoe UI" font-size="2.4089" letter-spacing="0" word-spacing="0">
     <tspan x="201.02579" y="559.25452">MIC</tspan>
    </text>
    <text transform="matrix(-.02852 -.99503 .99623 -.30589 4.1667 -5.0926)" x="214.54735" y="559.14868" fill="#fff" font-family="Segoe UI" font-size="2.4089" letter-spacing="0" word-spacing="0">
     <tspan x="214.54735" y="559.14868">LINE-IN</tspan>
    </text>
    <text transform="matrix(1 -.29604 0 1 4.1667 -5.0926)" x="539.45819" y="-237.76221" fill="#006680" font-family="Segoe UI" font-size="3.7175" letter-spacing="0" word-spacing="0">
     <tspan x="539.45819" y="-237.76221">AUDIO</tspan>
    </text>
    <path d="m585.13-257.17 22.48 15.903c-11.43 5.7465-47.02 4.5178-60.04-2.1618z" fill="url(#q)" opacity=".68142"/>
    <path transform="matrix(.93591,-.35224,.71881,.6952,0,.06614)" d="m652.45-35.318h6.0236a1.3556 1.3556 0 0 1 1.3556 1.3556v12.149a1.3556 1.3556 0 0 1 -1.3556 1.3556h-6.0236a1.3556 1.3556 0 0 1 -1.3556 -1.3556v-12.149a1.3556 1.3556 0 0 1 1.3556 -1.3556" fill="url(#p)" filter="url(#x)"/>
    <path transform="matrix(.93591,-.35224,.71881,.6952,0,0)" d="m653.02-36.072h6.0236a1.3556 1.3556 0 0 1 1.3556 1.3556v12.149a1.3556 1.3556 0 0 1 -1.3556 1.3556h-6.0236a1.3556 1.3556 0 0 1 -1.3556 -1.3556v-12.149a1.3556 1.3556 0 0 1 1.3556 -1.3556" fill="#808080"/>
    <path transform="matrix(.93591,-.35224,.71881,.6952,.02894,-.08681)" d="m653.07-35.902h6.1192a1.0882 1.0882 0 0 1 1.0882 1.0882v12.104a1.0882 1.0882 0 0 1 -1.0882 1.0882h-6.1192a1.0882 1.0882 0 0 1 -1.0882 -1.0882v-12.104a1.0882 1.0882 0 0 1 1.0882 -1.0882" fill="#4d4d4d" filter="url(#b)"/>
    <text transform="matrix(.84419,-.3576,.73532,.87308,0,0)" x="700.71417" y="3.58839" fill="#ccc" filter="url(#b)" font-family="Segoe UI" font-size="1.555" letter-spacing="0" word-spacing="0">
     <tspan x="700.71417" y="3.58839" fill="#ccc" font-family="Aharoni" font-weight="bold">POWER</tspan>
    </text>
    <text transform="matrix(.84419,-.3576,.73532,.87308,0,0)" x="700.6676" y="3.60247" font-family="Segoe UI" font-size="1.555" letter-spacing="0" word-spacing="0">
     <tspan x="700.6676" y="3.60247" font-family="Aharoni" font-weight="bold">POWER</tspan>
    </text>
    <path d="m590.68-254.81-0.67818 0.31998 2.9855 2.8238 0.68526-0.3326-2.9924-2.811zm0.72396 0.3486 0.54238 0.53442c1.2094-0.14191 2.6079 0.40987 3.1804 1.3258 0.61093 0.97735 0.0951 1.9682-1.1709 2.2225s-2.7806-0.32902-3.3915-1.3064c-0.39509-0.6321-0.27835-1.2852 0.17307-1.7234l-0.55587-0.50879c-0.71912 0.58067-0.901 1.4875-0.3443 2.3781 0.79849 1.2774 2.8146 2.054 4.4697 1.7217s2.3458-1.6524 1.5474-2.9299-2.795-2.0465-4.4501-1.7141z" fill="#ccc" filter="url(#b)"/>
    <path d="m590.65-254.78-0.67818 0.31998 2.9855 2.8238 0.68526-0.3326-2.9924-2.811zm0.72396 0.3486 0.54238 0.53442c1.2094-0.14191 2.6079 0.40987 3.1804 1.3258 0.61093 0.97735 0.0951 1.9682-1.1709 2.2225s-2.7806-0.32902-3.3915-1.3064c-0.39509-0.6321-0.27835-1.2852 0.17307-1.7234l-0.55587-0.50879c-0.71912 0.58067-0.901 1.4875-0.3443 2.3781 0.79849 1.2774 2.8146 2.054 4.4697 1.7217s2.3458-1.6524 1.5474-2.9299-2.795-2.0465-4.4501-1.7141z"/>
    <path transform="matrix(.94536,-.32603,.03972,.99921,0,0)" d="m582.66272-259.68195h.47693a.98401,.98401 0 0,1 .98401.98401v33.90577a.98401,.98401 0 0,1 -.98401.98401h-.47693a.98401,.98401 0 0,1 -.98401-.98401v-33.90577a.98401,.98401 0 0,1 .98401-.98401" fill="#fff"/>
    <path transform="matrix(.94536,-.32603,.03972,.99921,0,0)" d="m582.00659-260.55121h.47693a.98401,.98401 0 0,1 .98401.98401v33.90577a.98401,.98401 0 0,1 -.98401.98401h-.47693a.98401,.98401 0 0,1 -.98401-.98401v-33.90577a.98401,.98401 0 0,1 .98401-.98401"/>
    <text transform="skewY(343.51)" x="544.96295" y="-271.00015" fill="#006680" font-family="Segoe UI" font-size="3.7175" letter-spacing="0" word-spacing="0">
     <tspan x="544.96295" y="-271.00015">CARD</tspan>
     <tspan x="544.96295" y="-266.35327">READER</tspan>
    </text>
   </g>
  </g>
  <path d="m-287.29-553.32 473.75-102.26 343.8 86.564-576.17 157.39z" fill="#666" filter="url(#ae)"/>
  <path transform="matrix(1 0 0 1.0284 0 26.338)" d="m316.97-926.14 141.91 47.759 36.913 277.57-172.48-61.652z" fill="#333" filter="url(#ai)" opacity=".73451" stroke="#000" stroke-linecap="square" stroke-width=".48354"/>
  <path d="m344.66-1073.6c-2.4168-0.066-5.1644 0.302-8.3125 0.875l-532.94 41.5c-9.6053 9.86-20.728 23.002-18.594 33.938l107.75 493.5h0.0625l10.812 49.125c7.5237 35.212 19.322 43.757 34.469 38.406l553-147.38c0.84878-0.29159 2.4162-0.87635 1.8125-3l-6.8438-25.688c0.46661 2.6455-0.56524 3.7675-2.7188 4.25l-552.5 145.03c-7.9265 2.0749-12.384-2.051-13.719-7.25l-0.4375-1.9375c-0.02056-0.11582-0.04388-0.22699-0.0625-0.34375l-14.486-67.981 554.16-140.38 20.744 88.806 10.424 2.4256-118.6-490.62c-4.0627-12.1-16.77-13.085-24.021-13.283z" fill="url(#i)"/>
  <path d="m-77.843-455.25-13.345-59.321 557.38-141.46 15.781 63.031c0.88843 3.2541 1.1329 3.6792-1.8438 4.4375l-549.55 144.45c-5.1009 1.2089-5.899-1.4299-8.4213-11.133zm-5.607 3.6765c2.5265 11.827 12.656 8.9256 14.41 8.5229l551.98-144.92c2.1021-0.5413 3.6944-1.2507 2.7893-4.9592l-17.046-67.04-0.1875-0.71875-98.156-406.72c-4.0627-12.1-8.437-15.958-15.688-16.156-2.4168-0.066-5.1644 0.302-8.3125 0.875l-535.81 49c-11.391 2.0029-18.21 14.074-15.719 26.438l107.92 494.13z" fill="#b3b3b3"/>
  <path d="m-182.7-1030.4 526.9-48.197c15.192-2.2541 18.272-0.8243 23.598 15.04l97.447 403.74-557.47 140.7-108.06-487.39c-2.4498-12.158 2.8702-21.92 17.584-23.889z" fill="#333"/>
  <path d="m-178-993.92 534.68-59.725c1.5761-0.2619 2.3788-0.1746 2.8734 1.4301l78.987 325.12c0.5987 1.5387-0.0915 2.49-2.0713 3.0784l-523.14 120.22c-3.4483 1.0058-4.6366-0.84336-4.6366-0.84336l-88.604-387.24s0.18479-1.9663 1.9089-2.0382z" fill="#4d4d4d"/>
  <path d="m-180-991.92 537.14-60 78.571 325.71-527.14 121.43z" fill="#1a1a1a"/>
  <path d="m-173.28-988.36 294.6-32.683-9.2956 365.75-198.67 45.631z" fill="url(#j)"/>
  <text transform="matrix(.79434,-.07633,0,1.2589,0,0)" x="-228.24948" y="-812.04663" fill="#999" filter="url(#b)" font-family="Segoe UI" font-size="11.858" letter-spacing="0" word-spacing="0">
   <tspan x="-228.24948" y="-812.04663" fill="#999" font-family="Aharoni" font-weight="bold">LCD-Pro</tspan>
  </text>
  <text transform="matrix(.79434,-.07633,0,1.2589,0,0)" x="-228.97299" y="-812.31873" fill="#1a1a1a" fill-opacity=".8254" font-family="Segoe UI" font-size="11.858" letter-spacing="0" word-spacing="0">
   <tspan x="-228.97299" y="-812.31873" fill="#1a1a1a" fill-opacity=".8254" font-family="Aharoni" font-weight="bold">LCD-Pro</tspan>
  </text>
  <g transform="translate(50.575 -12.644)">
   <path d="m174.88125-624.26421 7.99075-1.94007c.53397-.12964 1.01889-.0672 1.0767.16913l.49632,2.02911c.0578.23633-.30955.54063-.84212.67725l-7.90066,2.02689c-.53257.13663-1.01172.0653-1.07669-.16913l-.58644-2.11593c-.065-.23444.30901-.54304.84212-.67724z" fill="#1a1a1a"/>
   <path d="m191.97895-628.43088 7.99075-1.94007c.53397-.12964 1.01889-.0672 1.0767.16913l.49632,2.02911c.0578.23633-.30955.54063-.84212.67725l-7.90066,2.02689c-.53257.13663-1.01172.0653-1.07669-.16913l-.58644-2.11593c-.065-.23444.30901-.54304.84212-.67724z" fill="#1a1a1a"/>
   <text transform="matrix(.97521,-.2213,.2213,.97521,0,0)" x="326.76093" y="-563.19995" fill="#fff" font-family="Segoe UI" font-size="2.7136" letter-spacing="0" word-spacing="0">
    <tspan x="326.76093" y="-563.19995">SELECT</tspan>
   </text>
   <path d="m209.07665-632.45387 7.99075-1.94007c.53397-.12964 1.01889-.0672 1.0767.16913l.49632,2.02911c.0578.23633-.30955.54063-.84212.67725l-7.90066,2.02689c-.53257.13663-1.01172.0653-1.07669-.16913l-.58644-2.11593c-.065-.23444.30901-.54304.84212-.67724z" fill="#1a1a1a"/>
   <path d="m226.17435-636.47686 7.99075-1.94007c.53397-.12964 1.01889-.0672 1.0767.16913l.49632,2.02911c.0578.23633-.30955.54063-.84212.67725l-7.90066,2.02689c-.53257.13663-1.01172.0653-1.07669-.16913l-.58644-2.11593c-.065-.23444.30901-.54304.84212-.67724z" fill="#1a1a1a"/>
   <path d="m175.12105-624.19603 7.99075-1.94007c.53397-.12964 1.01889-.0672 1.0767.16912l.49632,2.02913c.0578.23632-.30955.54061-.84212.67724l-7.90067,2.02689c-.53256.13663-1.01171.0653-1.07669-.16913l-.58643-2.11593c-.065-.23445.30901-.54305.84212-.67725z" fill="url(#o)"/>
   <g transform="translate(-50.121 12.877)">
    <path transform="matrix(.96593,-.25882,.25882,.96593,0,0)" d="m345.08-572.34 18.66 0.51696c1.8004 0.0499 3.2753 1.4501 3.2511 3.2511l-0.20851 15.463c-0.0243 1.8009-1.4502 3.2242-3.2511 3.2511l-18.452 0.27515c-1.8009 0.0269-3.2511-1.45-3.2511-3.2511v-16.255c0-1.8011 1.4507-3.3009 3.2511-3.2511z" fill="url(#n)"/>
    <path transform="matrix(.96593,-.25882,.25882,.96593,0,0)" d="m345.53-571.26 18.081 0.39254c1.3122 0.0285 2.3787 1.0567 2.3692 2.3692l-0.11034 15.202c-0.01 1.3125-1.0569 2.3419-2.3692 2.3692l-17.97 0.37329c-1.3122 0.0273-2.3692-1.0566-2.3692-2.3692v-15.967c0-1.3125 1.057-2.3976 2.3692-2.3692z" fill="url(#g)"/>
    <path d="m196.82-639.09-1.1697 0.31721 1.6257 5.908 1.1895-0.33703-1.6455-5.8882zm0.67407 0.8525 0.27756 1.1102c1.729 0.17421 3.1324 1.6113 3.1324 3.3902 0 1.8984-1.5116 3.4298-3.41 3.4298s-3.4298-1.5314-3.4298-3.4298c0-1.2278 0.69924-2.3144 1.6654-2.9144l-0.31721-1.0706c-1.4413 0.75292-2.4385 2.2548-2.4385 3.9849 0 2.4813 2.0389 4.5202 4.5202 4.5202s4.5004-2.0389 4.5004-4.5202-2.0191-4.5004-4.5004-4.5004z" fill="#1a1a1a"/>
   </g>
   <text transform="matrix(.97521,-.2213,.2213,.97521,0,0)" x="309.44531" y="-562.85669" fill="#fff" font-family="Segoe UI" font-size="2.7136" letter-spacing="0" word-spacing="0">
    <tspan x="309.44531" y="-562.85669">MENU</tspan>
   </text>
   <path d="m192.21875-628.3627 7.99075-1.94007c.53397-.12964 1.01889-.0672 1.0767.16912l.49632,2.02913c.0578.23632-.30955.54061-.84212.67724l-7.90067,2.02689c-.53256.13663-1.01171.0653-1.07669-.16913l-.58643-2.11593c-.065-.23445.30901-.54305.84212-.67725z" fill="url(#m)"/>
   <path d="m209.31645-632.38569 7.99075-1.94007c.53397-.12964 1.01889-.0672 1.0767.16912l.49632,2.02913c.0578.23632-.30955.54061-.84212.67724l-7.90067,2.02689c-.53256.13663-1.01171.0653-1.07669-.16913l-.58643-2.11593c-.065-.23445.30901-.54305.84212-.67725z" fill="url(#l)"/>
   <text transform="matrix(.97521,-.2213,.2213,.97521,0,0)" x="347.1506" y="-562.09613" fill="#fff" font-family="Segoe UI" font-size="7.7754" letter-spacing="0" word-spacing="0">
    <tspan x="347.1506" y="-562.09613">-</tspan>
   </text>
   <path d="m226.41415-636.40868 7.99075-1.94007c.53397-.12964 1.01889-.0672 1.0767.16912l.49632,2.02913c.0578.23632-.30955.54061-.84212.67724l-7.90067,2.02689c-.53256.13663-1.01171.0653-1.07669-.16913l-.58643-2.11593c-.065-.23445.30901-.54305.84212-.67725z" fill="url(#k)"/>
   <text transform="matrix(.97521,-.2213,.2213,.97521,0,0)" x="364.57224" y="-562.85126" fill="#fff" font-family="Segoe UI" font-size="5.3035" letter-spacing="0" word-spacing="0">
    <tspan x="364.57224" y="-562.85126">+</tspan>
   </text>
  </g>
  <path d="m52.874-372.29 431.6-116.81 219.8 65.071-367.36 116.35z" fill="#4d4d4d" filter="url(#ah)"/>
  <path d="m102.3-371.14 382.17-117.96 219.8 65.071-366.55 118.79-25.054-6.9354z" fill="#4d4d4d" filter="url(#af)"/>
  <path d="m156.82-369.65-28.221 7.9965c-1.6065 0.45521-3.284 1.8946-4.8958 1.4584l-34.666-9.3807c-1.6118-0.43617-1.9107-2.2141-0.45268-3.028l33.921-7.0401z" fill="#4d4d4d" filter="url(#ag)"/>
  <path d="m133.72-381.36-6.2658 19.129c-0.51976 1.5868-2.1346 2.4693-3.7464 2.0331l-34.666-9.3807c-1.6118-0.43617-2.4995-2.1431-2.0331-3.7464l5.8594-20.145z" fill="#333"/>
  <path d="m132.59-380.95-6.2658 19.129c-0.51976 1.5868-2.1346 2.4693-3.7464 2.0331l-34.666-9.3807c-1.6118-0.43617-2.4995-2.1431-2.0331-3.7464l5.8594-20.145z" fill="url(#u)"/>
  <path d="m77.23-397.13 394.79-108.89c6.6549-1.8355 14.631 0.59585 17.681 1.4824l224.85 65.368c3.0494 0.88653 12.154 9.009 5.3182 11.201l-376.46 120.74c-7.7316 2.4797-17.802-6.6117-31.491-10.783l-235.87-71.873c-4.9696-1.5143-5.4807-3.3236-4.9958-7.393 0.9758-0.97087 3.5688 0.86634 6.1823 0.14552z" fill="url(#v)"/>
  <path d="m77.23-401.13 394.79-108.89c6.6549-1.8355 14.631 0.59585 17.681 1.4824l224.85 65.368c3.0494 0.88653 12.154 9.009 5.3182 11.201l-376.46 120.74c-7.7316 2.4797-17.802-6.6117-31.491-10.783l-235.87-71.873c-8.2227-2.5056-5.4194-5.4255 1.1865-7.2474z" fill="url(#w)"/>
  <path transform="matrix(.96138,-.27521,.95893,.28364,0,0)" d="m758.12-660.56h399.3a5.7322 5.7322 0 0 1 5.7322 5.7322v185.89a5.7322 5.7322 0 0 1 -5.7322 5.7322h-399.3a5.7322 5.7322 0 0 1 -5.7322 -5.7322v-185.89a5.7322 5.7322 0 0 1 5.7322 -5.7322" fill="#333" fill-rule="evenodd"/>
  <g transform="matrix(.57396 -.16431 1.0376 .30689 20.734 -400.83)" fill="#1a1a1a" fill-rule="evenodd">
   <path d="m605.25 89.992h20c2 0 3 1 3 2v18c0 1-1 2-3 2h-20c-1 0-3-1-3-2v-18c0-1 2-2 3-2z"/>
   <path d="m635.25 89.992h19c2 0 3 1 3 2v18c0 1-1 2-3 2h-19c-1 0-3-1-3-2v-18c0-1 2-2 3-2z"/>
   <path d="m664.25 89.992h20c2 0 3 1 3 2v18c0 1-1 2-3 2h-20c-1 0-3-1-3-2v-18c0-1 2-2 3-2z"/>
   <path d="m605.25 115.35h20c2 0 3 2 3 3v18c0 2-1 3-3 3h-20c-1 0-3-1-3-3v-18c0-1 2-3 3-3z"/>
   <path d="m635.25 115.35h19c2 0 3 2 3 3v18c0 2-1 3-3 3h-19c-1 0-3-1-3-3v-18c0-1 2-3 3-3z"/>
   <path d="m664.25 115.35h20c2 0 3 2 3 3v18c0 2-1 3-3 3h-20c-1 0-3-1-3-3v-18c0-1 2-3 3-3z"/>
   <path d="m605.25 143.36h20c2 0 3 1 3 3v18c0 2-1 3-3 3h-20c-1 0-3-1-3-3v-18c0-2 2-3 3-3z"/>
   <path d="m635.25 143.36h19c2 0 3 1 3 3v18c0 2-1 3-3 3h-19c-1 0-3-1-3-3v-18c0-2 2-3 3-3z"/>
   <path d="m664.25 143.36h20c2 0 3 1 3 3v18c0 2-1 3-3 3h-20c-1 0-3-1-3-3v-18c0-2 2-3 3-3z"/>
   <path d="m605.25 171.36h20c2 0 3 1 3 3v17c0 1-1 3-3 3h-20c-1 0-3-2-3-3v-17c0-2 2-3 3-3z"/>
   <path d="m635.25 171.36h19c2 0 3 1 3 3v17c0 1-1 3-3 3h-19c-1 0-3-2-3-3v-17c0-2 2-3 3-3z"/>
   <path d="m664.25 171.36h20c2 0 3 1 3 3v17c0 1-1 3-3 3h-20c-1 0-3-2-3-3v-17c0-2 2-3 3-3z"/>
   <path d="m664.25 198.36h20c2 0 3 1 3 2v19c0 1-1 2-3 2h-20c-1 0-3-1-3-2v-19c0-1 2-2 3-2z"/>
   <path d="m694.25 89.992h20c2 0 3 1 3 2v18c0 1-1 2-3 2h-20c-1 0-3-1-3-2v-18c0-1 2-2 3-2z"/>
   <path d="m717.25 118.35c0-1-1-3-3-3h-20c-1 0-3 2-3 3v46.002c0 2 2 3 3 3h20c2 0 3-1 3-3z"/>
   <path d="m717.25 174.36c0-2-1-3-3-3h-20c-1 0-3 1-3 3v45.002c0 1 2 2 3 2h20c2 0 3-1 3-2z"/>
   <path d="m605.25 221.36c-1 0-3-1-3-2v-19c0-1 2-2 3-2h49c2 0 3 1 3 2v19c0 1-1 2-3 2h-49z"/>
   <path d="m47 89.992h20c1 0 3 1 3 3v17c0 2-2 3-3 3h-20c-2 0-3-1-3-3v-17c0-2 1-3 3-3z"/>
   <path d="m77 89.992h20c2 0 3 1 3 3v17c0 2-1 3-3 3h-20c-2 0-3-1-3-3v-17c0-2 1-3 3-3z"/>
   <path d="m106 89.992h20c2 0 3 1 3 3v17c0 2-1 3-3 3h-20c-1 0-2-1-2-3v-17c0-2 1-3 2-3z"/>
   <path d="m136 89.992h20c2 0 3 1 3 3v17c0 2-1 3-3 3h-20c-2 0-3-1-3-3v-17c0-2 1-3 3-3z"/>
   <path d="m166 89.992h20c2 0 3 1 3 3v17c0 2-1 3-3 3h-20c-1 0-3-1-3-3v-17c0-2 2-3 3-3z"/>
   <path d="m196 89.992h19c2 0 3 1 3 3v17c0 2-1 3-3 3h-19c-1 0-3-1-3-3v-17c0-2 2-3 3-3z"/>
   <path d="m225 89.992h20c2 0 3 1 3 3v17c0 2-1 3-3 3h-20c-1 0-3-1-3-3v-17c0-2 2-3 3-3z"/>
   <path d="m255 89.992h20c2 0 3 1 3 3v17c0 2-1 3-3 3h-20c-1 0-3-1-3-3v-17c0-2 2-3 3-3z"/>
   <path d="m285 89.992h19c2 0 3 1 3 3v17c0 2-1 3-3 3h-19c-1 0-3-1-3-3v-17c0-2 2-3 3-3z"/>
   <path d="m314 89.992h20c2 0 3 1 3 3v17c0 2-1 3-3 3h-20c-1 0-3-1-3-3v-17c0-2 2-3 3-3z"/>
   <path d="m344 89.992h20c2 0 3 1 3 3v17c0 2-1 3-3 3h-20c-1 0-3-1-3-3v-17c0-2 2-3 3-3z"/>
   <path d="m374 89.992h20c1 0 2 1 2 3v17c0 2-1 3-2 3h-20c-1 0-3-1-3-3v-17c0-2 2-3 3-3z"/>
   <path d="m403 89.992h20c2 0 3 1 3 3v17c0 2-1 3-3 3h-20c-1 0-2-1-2-3v-17c0-2 1-3 2-3z"/>
   <path d="m433 89.992h20c2 0 3 1 3 3v17c0 2-1 3-3 3h-20c-1 0-2-1-2-3v-17c0-2 1-3 2-3z"/>
   <path d="m463 89.992h20c2 0 3 1 3 3v17c0 2-1 3-3 3h-20c-1 0-2-1-2-3v-17c0-2 1-3 2-3z"/>
   <path d="m95 116.35h19c2 0 3 1 3 3v18c0 1-1 3-3 3h-19c-1 0-3-2-3-3v-18c0-2 2-3 3-3z"/>
   <path d="m124 116.35h20c2 0 3 1 3 3v18c0 1-1 3-3 3h-20c-1 0-3-2-3-3v-18c0-2 2-3 3-3z"/>
   <path d="m154 116.35h20c2 0 3 1 3 3v18c0 1-1 3-3 3h-20c-1 0-3-2-3-3v-18c0-2 2-3 3-3z"/>
   <path d="m184 116.35h19c2 0 3 1 3 3v18c0 1-1 3-3 3h-19c-1 0-3-2-3-3v-18c0-2 2-3 3-3z"/>
   <path d="m213 116.35h20c2 0 3 1 3 3v18c0 1-1 3-3 3h-20c-1 0-2-2-2-3v-18c0-2 1-3 2-3z"/>
   <path d="m243 116.35h20c2 0 3 1 3 3v18c0 1-1 3-3 3h-20c-1 0-2-2-2-3v-18c0-2 1-3 2-3z"/>
   <path d="m273 116.35h20c2 0 3 1 3 3v18c0 1-1 3-3 3h-20c-1 0-2-2-2-3v-18c0-2 1-3 2-3z"/>
   <path d="m302 116.35h20c2 0 3 1 3 3v18c0 1-1 3-3 3h-20c-1 0-2-2-2-3v-18c0-2 1-3 2-3z"/>
   <path d="m332 116.35h20c2 0 3 1 3 3v18c0 1-1 3-3 3h-20c-1 0-2-2-2-3v-18c0-2 1-3 2-3z"/>
   <path d="m362 116.35h20c2 0 3 1 3 3v18c0 1-1 3-3 3h-20c-1 0-2-2-2-3v-18c0-2 1-3 2-3z"/>
   <path d="m392 116.35h19c2 0 3 1 3 3v18c0 1-1 3-3 3h-19c-1 0-2-2-2-3v-18c0-2 1-3 2-3z"/>
   <path d="m421 116.35h20c2 0 3 1 3 3v18c0 1-1 3-3 3h-20c-1 0-2-2-2-3v-18c0-2 1-3 2-3z"/>
   <path d="m103 144.36h19c1 0 3 1 3 2v19c0 1-2 2-3 2h-19c-2 0-3-1-3-2v-19c0-1 1-2 3-2z"/>
   <path d="m132 144.36h20c1 0 3 1 3 2v19c0 1-2 2-3 2h-20c-2 0-3-1-3-2v-19c0-1 1-2 3-2z"/>
   <path d="m162 144.36h20c2 0 3 1 3 2v19c0 1-1 2-3 2h-20c-2 0-3-1-3-2v-19c0-1 1-2 3-2z"/>
   <path d="m192 144.36h19c2 0 3 1 3 2v19c0 1-1 2-3 2h-19c-2 0-3-1-3-2v-19c0-1 1-2 3-2z"/>
   <path d="m221 144.36h20c2 0 3 1 3 2v19c0 1-1 2-3 2h-20c-2 0-3-1-3-2v-19c0-1 1-2 3-2z"/>
   <path d="m251 144.36h20c2 0 3 1 3 2v19c0 1-1 2-3 2h-20c-1 0-3-1-3-2v-19c0-1 2-2 3-2z"/>
   <path d="m281 144.36h19c2 0 3 1 3 2v19c0 1-1 2-3 2h-19c-1 0-3-1-3-2v-19c0-1 2-2 3-2z"/>
   <path d="m310 144.36h20c2 0 3 1 3 2v19c0 1-1 2-3 2h-20c-1 0-3-1-3-2v-19c0-1 2-2 3-2z"/>
   <path d="m340 144.36h20c2 0 3 1 3 2v19c0 1-1 2-3 2h-20c-1 0-3-1-3-2v-19c0-1 2-2 3-2z"/>
   <path d="m370 144.36h20c2 0 3 1 3 2v19c0 1-1 2-3 2h-20c-1 0-3-1-3-2v-19c0-1 2-2 3-2z"/>
   <path d="m399 144.36h20c2 0 3 1 3 2v19c0 1-1 2-3 2h-20c-1 0-3-1-3-2v-19c0-1 2-2 3-2z"/>
   <path d="m113 171.36h21c1 0 2 2 2 3v17c0 2-1 3-2 3h-21c-1 0-2-1-2-3v-17c0-1 1-3 2-3z"/>
   <path d="m143 171.36h21c1 0 2 2 2 3v17c0 2-1 3-2 3h-21c-1 0-2-1-2-3v-17c0-1 1-3 2-3z"/>
   <path d="m173 171.36h21c1 0 2 2 2 3v17c0 2-1 3-2 3h-21c-1 0-2-1-2-3v-17c0-1 1-3 2-3z"/>
   <path d="m233 171.36h20c1 0 2 2 2 3v17c0 2-1 3-2 3h-20c-2 0-3-1-3-3v-17c0-1 1-3 3-3z"/>
   <path d="m263 171.36h20c1 0 2 2 2 3v17c0 2-1 3-2 3h-20c-2 0-3-1-3-3v-17c0-1 1-3 3-3z"/>
   <path d="m293 171.36h19c1 0 2 2 2 3v17c0 2-1 3-2 3h-19c-2 0-3-1-3-3v-17c0-1 1-3 3-3z"/>
   <path d="m322 171.36h20c1 0 2 2 2 3v17c0 2-1 3-2 3h-20c-2 0-3-1-3-3v-17c0-1 1-3 3-3z"/>
   <path d="m352 171.36h20c1 0 2 2 2 3v17c0 2-1 3-2 3h-20c-2 0-3-1-3-3v-17c0-1 1-3 3-3z"/>
   <path d="m382 171.36h19c1 0 2 2 2 3v17c0 2-1 3-2 3h-19c-2 0-3-1-3-3v-17c0-1 1-3 3-3z"/>
   <path d="m47 55h20c1 0 3 1 3 3v18c0 1-2 3-3 3h-20c-2 0-3-2-3-3v-18c0-2 1-3 3-3z"/>
   <path d="m106 55h20c2 0 3 1 3 3v18c0 1-1 3-3 3h-20c-1 0-2-2-2-3v-18c0-2 1-3 2-3z"/>
   <path d="m136 55h20c2 0 3 1 3 3v18c0 1-1 3-3 3h-20c-2 0-3-2-3-3v-18c0-2 1-3 3-3z"/>
   <path d="m166 55h20c2 0 3 1 3 3v18c0 1-1 3-3 3h-20c-1 0-3-2-3-3v-18c0-2 2-3 3-3z"/>
   <path d="m196 55h19c2 0 3 1 3 3v18c0 1-1 3-3 3h-19c-1 0-3-2-3-3v-18c0-2 2-3 3-3z"/>
   <path d="m240 55h20c1 0 2 2 2 3v18c0 2-1 3-2 3h-20c-2 0-3-1-3-3v-18c0-1 1-3 3-3z"/>
   <path d="m270 55h20c1 0 2 2 2 3v18c0 2-1 3-2 3h-20c-2 0-3-1-3-3v-18c0-1 1-3 3-3z"/>
   <path d="m299 55h20c1 0 2 2 2 3v18c0 2-1 3-2 3h-20c-1 0-2-1-2-3v-18c0-1 1-3 2-3z"/>
   <path d="m329 55h20c1 0 2 2 2 3v18c0 2-1 3-2 3h-20c-2 0-3-1-3-3v-18c0-1 1-3 3-3z"/>
   <path d="m373 55h20c1 0 2 2 2 3v18c0 2-1 3-2 3h-20c-2 0-3-1-3-3v-18c0-1 1-3 3-3z"/>
   <path d="m402 55h20c1 0 2 2 2 3v18c0 2-1 3-2 3h-20c-2 0-3-1-3-3v-18c0-1 1-3 3-3z"/>
   <path d="m432 55h20c1 0 2 2 2 3v18c0 2-1 3-2 3h-20c-2 0-3-1-3-3v-18c0-1 1-3 3-3z"/>
   <path d="m462 55h20c1 0 2 2 2 3v18c0 2-1 3-2 3h-20c-2 0-3-1-3-3v-18c0-1 1-3 3-3z"/>
   <path d="m504.62 89.992h20c1 0 2 1 2 2v18c0 1-1 2-2 2h-20c-2 0-3-1-3-2v-18c0-1 1-2 3-2z"/>
   <path d="m534.62 89.992h20c1 0 2 1 2 2v18c0 1-1 2-2 2h-20c-2 0-3-1-3-2v-18c0-1 1-2 3-2z"/>
   <path d="m564.62 89.992h19c1 0 2 1 2 2v18c0 1-1 2-2 2h-19c-2 0-3-1-3-2v-18c0-1 1-2 3-2z"/>
   <path d="m502.62 55.022h20c2 0 3 2 3 3v18c0 2-1 3-3 3h-20c-1 0-3-1-3-3v-18c0-1 2-3 3-3z"/>
   <path d="m532.62 55.022h20c2 0 3 2 3 3v18c0 2-1 3-3 3h-20c-1 0-3-1-3-3v-18c0-1 2-3 3-3z"/>
   <path d="m562.62 55.022h19c2 0 3 2 3 3v18c0 2-1 3-3 3h-19c-1 0-3-1-3-3v-18c0-1 2-3 3-3z"/>
   <path d="m504.62 115.35h20c1 0 2 2 2 3v18c0 2-1 3-2 3h-20c-2 0-3-1-3-3v-18c0-1 1-3 3-3z"/>
   <path d="m534.62 115.35h20c1 0 2 2 2 3v18c0 2-1 3-2 3h-20c-2 0-3-1-3-3v-18c0-1 1-3 3-3z"/>
   <path d="m564.62 115.35h19c1 0 2 2 2 3v18c0 2-1 3-2 3h-19c-2 0-3-1-3-3v-18c0-1 1-3 3-3z"/>
   <path d="m504.62 198.36h20c1 0 2 1 2 2v19c0 1-1 2-2 2h-20c-2 0-3-1-3-2v-19c0-1 1-2 3-2z"/>
   <path d="m534.62 198.36h20c1 0 2 1 2 2v19c0 1-1 2-2 2h-20c-2 0-3-1-3-2v-19c0-1 1-2 3-2z"/>
   <path d="m564.62 198.36h19c1 0 2 1 2 2v19c0 1-1 2-2 2h-19c-2 0-3-1-3-2v-19c0-1 1-2 3-2z"/>
   <path d="m534.62 171.36h20c1 0 2 1 2 3v17c0 1-1 3-2 3h-20c-2 0-3-2-3-3v-17c0-2 1-3 3-3z"/>
   <path d="m162 198.36h-11c-2 0-3 1-3 3v18c0 2 1 3 3 3h197s1-1 1-3v-18c0-2-1-3-1-3h-186z"/>
   <path d="m391 198.36h19c1 0 2 1 2 3v18c0 2-1 3-2 3h-19c-2 0-3-1-3-3v-18c0-2 1-3 3-3z"/>
   <path d="m420 198.36h20c1 0 2 1 2 3v18c0 2-1 3-2 3h-20c-2 0-3-1-3-3v-18c0-2 1-3 3-3z"/>
   <path d="m202 171.36h21c1 0 2 2 2 3v17c0 2-1 3-2 3h-21s-1-1-1-3v-17c0-1 1-3 1-3z"/>
   <path d="m47 140.35c-2 0-3-2-3-3v-18c0-2 1-3 3-3h38c2 0 3 1 3 3v18c0 1-1 3-3 3h-38z"/>
   <path d="m47 167.36c-1 0-3-1-3-2v-19c0-1 2-2 3-2h45c2 0 4 1 4 2v19c0 1-2 2-4 2h-45z"/>
   <path d="m410 194.36c-1 0-2-1-2-3v-17c0-1 1-3 2-3h73c2 0 3 2 3 3v17c0 2-1 3-3 3h-73z"/>
   <path d="m446 144.36h-17c-2 0-3 1-3 2v19c0 1 1 2 3 2h54c2 0 3-1 3-2v-46.002c0-2-1-3-3-3h-31c-2 0-3 1-3 3v22.002c0 2 0 3-3 3z"/>
   <path d="m450 198.36h33c2 0 3 1 3 3v18c0 2-1 3-3 3h-33c-2 0-3-1-3-3v-18c0-2 1-3 3-3z"/>
   <path d="m47 194.36c-1 0-3-1-3-3v-17c0-1 2-3 3-3h57c1 0 2 2 2 3v17c0 2-1 3-2 3h-57z"/>
   <path d="m47 198.36h30c1 0 2 1 2 3v18c0 2-1 3-2 3h-30c-2 0-3-1-3-3v-18c0-2 1-3 3-3z"/>
   <path d="m87 198.36h19c2 0 3 1 3 3v18c0 1-1 3-3 3h-19c-1 0-3-2-3-3v-18c0-2 2-3 3-3z"/>
   <path d="m116 198.36h25c1 0 2 1 2 3v18c0 1-1 3-2 3h-25c-1 0-2-2-2-3v-18c0-2 1-3 2-3z"/>
   <path d="m356 198.36h24c1 0 2 1 2 3v18c0 1-1 3-2 3h-24c-1 0-2-2-2-3v-18c0-2 1-3 2-3z"/>
  </g>
  <g transform="matrix(.57396 -.16431 1.0376 .30689 20.734 -402.83)" fill="#4d4d4d" fill-rule="evenodd">
   <path d="m605.25 89.992h20c2 0 3 1 3 2v18c0 1-1 2-3 2h-20c-1 0-3-1-3-2v-18c0-1 2-2 3-2z"/>
   <path d="m635.25 89.992h19c2 0 3 1 3 2v18c0 1-1 2-3 2h-19c-1 0-3-1-3-2v-18c0-1 2-2 3-2z"/>
   <path d="m664.25 89.992h20c2 0 3 1 3 2v18c0 1-1 2-3 2h-20c-1 0-3-1-3-2v-18c0-1 2-2 3-2z"/>
   <path d="m605.25 115.35h20c2 0 3 2 3 3v18c0 2-1 3-3 3h-20c-1 0-3-1-3-3v-18c0-1 2-3 3-3z"/>
   <path d="m635.25 115.35h19c2 0 3 2 3 3v18c0 2-1 3-3 3h-19c-1 0-3-1-3-3v-18c0-1 2-3 3-3z"/>
   <path d="m664.25 115.35h20c2 0 3 2 3 3v18c0 2-1 3-3 3h-20c-1 0-3-1-3-3v-18c0-1 2-3 3-3z"/>
   <path d="m605.25 143.36h20c2 0 3 1 3 3v18c0 2-1 3-3 3h-20c-1 0-3-1-3-3v-18c0-2 2-3 3-3z"/>
   <path d="m635.25 143.36h19c2 0 3 1 3 3v18c0 2-1 3-3 3h-19c-1 0-3-1-3-3v-18c0-2 2-3 3-3z"/>
   <path d="m664.25 143.36h20c2 0 3 1 3 3v18c0 2-1 3-3 3h-20c-1 0-3-1-3-3v-18c0-2 2-3 3-3z"/>
   <path d="m605.25 171.36h20c2 0 3 1 3 3v17c0 1-1 3-3 3h-20c-1 0-3-2-3-3v-17c0-2 2-3 3-3z"/>
   <path d="m635.25 171.36h19c2 0 3 1 3 3v17c0 1-1 3-3 3h-19c-1 0-3-2-3-3v-17c0-2 2-3 3-3z"/>
   <path d="m664.25 171.36h20c2 0 3 1 3 3v17c0 1-1 3-3 3h-20c-1 0-3-2-3-3v-17c0-2 2-3 3-3z"/>
   <path d="m664.25 198.36h20c2 0 3 1 3 2v19c0 1-1 2-3 2h-20c-1 0-3-1-3-2v-19c0-1 2-2 3-2z"/>
   <path d="m694.25 89.992h20c2 0 3 1 3 2v18c0 1-1 2-3 2h-20c-1 0-3-1-3-2v-18c0-1 2-2 3-2z"/>
   <path d="m717.25 118.35c0-1-1-3-3-3h-20c-1 0-3 2-3 3v46.002c0 2 2 3 3 3h20c2 0 3-1 3-3z"/>
   <path d="m717.25 174.36c0-2-1-3-3-3h-20c-1 0-3 1-3 3v45.002c0 1 2 2 3 2h20c2 0 3-1 3-2z"/>
   <path d="m605.25 221.36c-1 0-3-1-3-2v-19c0-1 2-2 3-2h49c2 0 3 1 3 2v19c0 1-1 2-3 2h-49z"/>
   <path d="m47 89.992h20c1 0 3 1 3 3v17c0 2-2 3-3 3h-20c-2 0-3-1-3-3v-17c0-2 1-3 3-3z"/>
   <path d="m77 89.992h20c2 0 3 1 3 3v17c0 2-1 3-3 3h-20c-2 0-3-1-3-3v-17c0-2 1-3 3-3z"/>
   <path d="m106 89.992h20c2 0 3 1 3 3v17c0 2-1 3-3 3h-20c-1 0-2-1-2-3v-17c0-2 1-3 2-3z"/>
   <path d="m136 89.992h20c2 0 3 1 3 3v17c0 2-1 3-3 3h-20c-2 0-3-1-3-3v-17c0-2 1-3 3-3z"/>
   <path d="m166 89.992h20c2 0 3 1 3 3v17c0 2-1 3-3 3h-20c-1 0-3-1-3-3v-17c0-2 2-3 3-3z"/>
   <path d="m196 89.992h19c2 0 3 1 3 3v17c0 2-1 3-3 3h-19c-1 0-3-1-3-3v-17c0-2 2-3 3-3z"/>
   <path d="m225 89.992h20c2 0 3 1 3 3v17c0 2-1 3-3 3h-20c-1 0-3-1-3-3v-17c0-2 2-3 3-3z"/>
   <path d="m255 89.992h20c2 0 3 1 3 3v17c0 2-1 3-3 3h-20c-1 0-3-1-3-3v-17c0-2 2-3 3-3z"/>
   <path d="m285 89.992h19c2 0 3 1 3 3v17c0 2-1 3-3 3h-19c-1 0-3-1-3-3v-17c0-2 2-3 3-3z"/>
   <path d="m314 89.992h20c2 0 3 1 3 3v17c0 2-1 3-3 3h-20c-1 0-3-1-3-3v-17c0-2 2-3 3-3z"/>
   <path d="m344 89.992h20c2 0 3 1 3 3v17c0 2-1 3-3 3h-20c-1 0-3-1-3-3v-17c0-2 2-3 3-3z"/>
   <path d="m374 89.992h20c1 0 2 1 2 3v17c0 2-1 3-2 3h-20c-1 0-3-1-3-3v-17c0-2 2-3 3-3z"/>
   <path d="m403 89.992h20c2 0 3 1 3 3v17c0 2-1 3-3 3h-20c-1 0-2-1-2-3v-17c0-2 1-3 2-3z"/>
   <path d="m433 89.992h20c2 0 3 1 3 3v17c0 2-1 3-3 3h-20c-1 0-2-1-2-3v-17c0-2 1-3 2-3z"/>
   <path d="m463 89.992h20c2 0 3 1 3 3v17c0 2-1 3-3 3h-20c-1 0-2-1-2-3v-17c0-2 1-3 2-3z"/>
   <path d="m95 116.35h19c2 0 3 1 3 3v18c0 1-1 3-3 3h-19c-1 0-3-2-3-3v-18c0-2 2-3 3-3z"/>
   <path d="m124 116.35h20c2 0 3 1 3 3v18c0 1-1 3-3 3h-20c-1 0-3-2-3-3v-18c0-2 2-3 3-3z"/>
   <path d="m154 116.35h20c2 0 3 1 3 3v18c0 1-1 3-3 3h-20c-1 0-3-2-3-3v-18c0-2 2-3 3-3z"/>
   <path d="m184 116.35h19c2 0 3 1 3 3v18c0 1-1 3-3 3h-19c-1 0-3-2-3-3v-18c0-2 2-3 3-3z"/>
   <path d="m213 116.35h20c2 0 3 1 3 3v18c0 1-1 3-3 3h-20c-1 0-2-2-2-3v-18c0-2 1-3 2-3z"/>
   <path d="m243 116.35h20c2 0 3 1 3 3v18c0 1-1 3-3 3h-20c-1 0-2-2-2-3v-18c0-2 1-3 2-3z"/>
   <path d="m273 116.35h20c2 0 3 1 3 3v18c0 1-1 3-3 3h-20c-1 0-2-2-2-3v-18c0-2 1-3 2-3z"/>
   <path d="m302 116.35h20c2 0 3 1 3 3v18c0 1-1 3-3 3h-20c-1 0-2-2-2-3v-18c0-2 1-3 2-3z"/>
   <path d="m332 116.35h20c2 0 3 1 3 3v18c0 1-1 3-3 3h-20c-1 0-2-2-2-3v-18c0-2 1-3 2-3z"/>
   <path d="m362 116.35h20c2 0 3 1 3 3v18c0 1-1 3-3 3h-20c-1 0-2-2-2-3v-18c0-2 1-3 2-3z"/>
   <path d="m392 116.35h19c2 0 3 1 3 3v18c0 1-1 3-3 3h-19c-1 0-2-2-2-3v-18c0-2 1-3 2-3z"/>
   <path d="m421 116.35h20c2 0 3 1 3 3v18c0 1-1 3-3 3h-20c-1 0-2-2-2-3v-18c0-2 1-3 2-3z"/>
   <path d="m103 144.36h19c1 0 3 1 3 2v19c0 1-2 2-3 2h-19c-2 0-3-1-3-2v-19c0-1 1-2 3-2z"/>
   <path d="m132 144.36h20c1 0 3 1 3 2v19c0 1-2 2-3 2h-20c-2 0-3-1-3-2v-19c0-1 1-2 3-2z"/>
   <path d="m162 144.36h20c2 0 3 1 3 2v19c0 1-1 2-3 2h-20c-2 0-3-1-3-2v-19c0-1 1-2 3-2z"/>
   <path d="m192 144.36h19c2 0 3 1 3 2v19c0 1-1 2-3 2h-19c-2 0-3-1-3-2v-19c0-1 1-2 3-2z"/>
   <path d="m221 144.36h20c2 0 3 1 3 2v19c0 1-1 2-3 2h-20c-2 0-3-1-3-2v-19c0-1 1-2 3-2z"/>
   <path d="m251 144.36h20c2 0 3 1 3 2v19c0 1-1 2-3 2h-20c-1 0-3-1-3-2v-19c0-1 2-2 3-2z"/>
   <path d="m281 144.36h19c2 0 3 1 3 2v19c0 1-1 2-3 2h-19c-1 0-3-1-3-2v-19c0-1 2-2 3-2z"/>
   <path d="m310 144.36h20c2 0 3 1 3 2v19c0 1-1 2-3 2h-20c-1 0-3-1-3-2v-19c0-1 2-2 3-2z"/>
   <path d="m340 144.36h20c2 0 3 1 3 2v19c0 1-1 2-3 2h-20c-1 0-3-1-3-2v-19c0-1 2-2 3-2z"/>
   <path d="m370 144.36h20c2 0 3 1 3 2v19c0 1-1 2-3 2h-20c-1 0-3-1-3-2v-19c0-1 2-2 3-2z"/>
   <path d="m399 144.36h20c2 0 3 1 3 2v19c0 1-1 2-3 2h-20c-1 0-3-1-3-2v-19c0-1 2-2 3-2z"/>
   <path d="m113 171.36h21c1 0 2 2 2 3v17c0 2-1 3-2 3h-21c-1 0-2-1-2-3v-17c0-1 1-3 2-3z"/>
   <path d="m143 171.36h21c1 0 2 2 2 3v17c0 2-1 3-2 3h-21c-1 0-2-1-2-3v-17c0-1 1-3 2-3z"/>
   <path d="m173 171.36h21c1 0 2 2 2 3v17c0 2-1 3-2 3h-21c-1 0-2-1-2-3v-17c0-1 1-3 2-3z"/>
   <path d="m233 171.36h20c1 0 2 2 2 3v17c0 2-1 3-2 3h-20c-2 0-3-1-3-3v-17c0-1 1-3 3-3z"/>
   <path d="m263 171.36h20c1 0 2 2 2 3v17c0 2-1 3-2 3h-20c-2 0-3-1-3-3v-17c0-1 1-3 3-3z"/>
   <path d="m293 171.36h19c1 0 2 2 2 3v17c0 2-1 3-2 3h-19c-2 0-3-1-3-3v-17c0-1 1-3 3-3z"/>
   <path d="m322 171.36h20c1 0 2 2 2 3v17c0 2-1 3-2 3h-20c-2 0-3-1-3-3v-17c0-1 1-3 3-3z"/>
   <path d="m352 171.36h20c1 0 2 2 2 3v17c0 2-1 3-2 3h-20c-2 0-3-1-3-3v-17c0-1 1-3 3-3z"/>
   <path d="m382 171.36h19c1 0 2 2 2 3v17c0 2-1 3-2 3h-19c-2 0-3-1-3-3v-17c0-1 1-3 3-3z"/>
   <path d="m47 55h20c1 0 3 1 3 3v18c0 1-2 3-3 3h-20c-2 0-3-2-3-3v-18c0-2 1-3 3-3z"/>
   <path d="m106 55h20c2 0 3 1 3 3v18c0 1-1 3-3 3h-20c-1 0-2-2-2-3v-18c0-2 1-3 2-3z"/>
   <path d="m136 55h20c2 0 3 1 3 3v18c0 1-1 3-3 3h-20c-2 0-3-2-3-3v-18c0-2 1-3 3-3z"/>
   <path d="m166 55h20c2 0 3 1 3 3v18c0 1-1 3-3 3h-20c-1 0-3-2-3-3v-18c0-2 2-3 3-3z"/>
   <path d="m196 55h19c2 0 3 1 3 3v18c0 1-1 3-3 3h-19c-1 0-3-2-3-3v-18c0-2 2-3 3-3z"/>
   <path d="m240 55h20c1 0 2 2 2 3v18c0 2-1 3-2 3h-20c-2 0-3-1-3-3v-18c0-1 1-3 3-3z"/>
   <path d="m270 55h20c1 0 2 2 2 3v18c0 2-1 3-2 3h-20c-2 0-3-1-3-3v-18c0-1 1-3 3-3z"/>
   <path d="m299 55h20c1 0 2 2 2 3v18c0 2-1 3-2 3h-20c-1 0-2-1-2-3v-18c0-1 1-3 2-3z"/>
   <path d="m329 55h20c1 0 2 2 2 3v18c0 2-1 3-2 3h-20c-2 0-3-1-3-3v-18c0-1 1-3 3-3z"/>
   <path d="m373 55h20c1 0 2 2 2 3v18c0 2-1 3-2 3h-20c-2 0-3-1-3-3v-18c0-1 1-3 3-3z"/>
   <path d="m402 55h20c1 0 2 2 2 3v18c0 2-1 3-2 3h-20c-2 0-3-1-3-3v-18c0-1 1-3 3-3z"/>
   <path d="m432 55h20c1 0 2 2 2 3v18c0 2-1 3-2 3h-20c-2 0-3-1-3-3v-18c0-1 1-3 3-3z"/>
   <path d="m462 55h20c1 0 2 2 2 3v18c0 2-1 3-2 3h-20c-2 0-3-1-3-3v-18c0-1 1-3 3-3z"/>
   <path d="m504.62 89.992h20c1 0 2 1 2 2v18c0 1-1 2-2 2h-20c-2 0-3-1-3-2v-18c0-1 1-2 3-2z"/>
   <path d="m534.62 89.992h20c1 0 2 1 2 2v18c0 1-1 2-2 2h-20c-2 0-3-1-3-2v-18c0-1 1-2 3-2z"/>
   <path d="m564.62 89.992h19c1 0 2 1 2 2v18c0 1-1 2-2 2h-19c-2 0-3-1-3-2v-18c0-1 1-2 3-2z"/>
   <path d="m502.62 55.022h20c2 0 3 2 3 3v18c0 2-1 3-3 3h-20c-1 0-3-1-3-3v-18c0-1 2-3 3-3z"/>
   <path d="m532.62 55.022h20c2 0 3 2 3 3v18c0 2-1 3-3 3h-20c-1 0-3-1-3-3v-18c0-1 2-3 3-3z"/>
   <path d="m562.62 55.022h19c2 0 3 2 3 3v18c0 2-1 3-3 3h-19c-1 0-3-1-3-3v-18c0-1 2-3 3-3z"/>
   <path d="m504.62 115.35h20c1 0 2 2 2 3v18c0 2-1 3-2 3h-20c-2 0-3-1-3-3v-18c0-1 1-3 3-3z"/>
   <path d="m534.62 115.35h20c1 0 2 2 2 3v18c0 2-1 3-2 3h-20c-2 0-3-1-3-3v-18c0-1 1-3 3-3z"/>
   <path d="m564.62 115.35h19c1 0 2 2 2 3v18c0 2-1 3-2 3h-19c-2 0-3-1-3-3v-18c0-1 1-3 3-3z"/>
   <path d="m504.62 198.36h20c1 0 2 1 2 2v19c0 1-1 2-2 2h-20c-2 0-3-1-3-2v-19c0-1 1-2 3-2z"/>
   <path d="m534.62 198.36h20c1 0 2 1 2 2v19c0 1-1 2-2 2h-20c-2 0-3-1-3-2v-19c0-1 1-2 3-2z"/>
   <path d="m564.62 198.36h19c1 0 2 1 2 2v19c0 1-1 2-2 2h-19c-2 0-3-1-3-2v-19c0-1 1-2 3-2z"/>
   <path d="m534.62 171.36h20c1 0 2 1 2 3v17c0 1-1 3-2 3h-20c-2 0-3-2-3-3v-17c0-2 1-3 3-3z"/>
   <path d="m162 198.36h-11c-2 0-3 1-3 3v18c0 2 1 3 3 3h197s1-1 1-3v-18c0-2-1-3-1-3h-186z"/>
   <path d="m391 198.36h19c1 0 2 1 2 3v18c0 2-1 3-2 3h-19c-2 0-3-1-3-3v-18c0-2 1-3 3-3z"/>
   <path d="m420 198.36h20c1 0 2 1 2 3v18c0 2-1 3-2 3h-20c-2 0-3-1-3-3v-18c0-2 1-3 3-3z"/>
   <path d="m202 171.36h21c1 0 2 2 2 3v17c0 2-1 3-2 3h-21s-1-1-1-3v-17c0-1 1-3 1-3z"/>
   <path d="m47 140.35c-2 0-3-2-3-3v-18c0-2 1-3 3-3h38c2 0 3 1 3 3v18c0 1-1 3-3 3h-38z"/>
   <path d="m47 167.36c-1 0-3-1-3-2v-19c0-1 2-2 3-2h45c2 0 4 1 4 2v19c0 1-2 2-4 2h-45z"/>
   <path d="m410 194.36c-1 0-2-1-2-3v-17c0-1 1-3 2-3h73c2 0 3 2 3 3v17c0 2-1 3-3 3h-73z"/>
   <path d="m446 144.36h-17c-2 0-3 1-3 2v19c0 1 1 2 3 2h54c2 0 3-1 3-2v-46.002c0-2-1-3-3-3h-31c-2 0-3 1-3 3v22.002c0 2 0 3-3 3z"/>
   <path d="m450 198.36h33c2 0 3 1 3 3v18c0 2-1 3-3 3h-33c-2 0-3-1-3-3v-18c0-2 1-3 3-3z"/>
   <path d="m47 194.36c-1 0-3-1-3-3v-17c0-1 2-3 3-3h57c1 0 2 2 2 3v17c0 2-1 3-2 3h-57z"/>
   <path d="m47 198.36h30c1 0 2 1 2 3v18c0 2-1 3-2 3h-30c-2 0-3-1-3-3v-18c0-2 1-3 3-3z"/>
   <path d="m87 198.36h19c2 0 3 1 3 3v18c0 1-1 3-3 3h-19c-1 0-3-2-3-3v-18c0-2 2-3 3-3z"/>
   <path d="m116 198.36h25c1 0 2 1 2 3v18c0 1-1 3-2 3h-25c-1 0-2-2-2-3v-18c0-2 1-3 2-3z"/>
   <path d="m356 198.36h24c1 0 2 1 2 3v18c0 1-1 3-2 3h-24c-1 0-2-2-2-3v-18c0-2 1-3 2-3z"/>
  </g>
  <g transform="matrix(.57396 -.16431 1.0376 .30689 20.734 -402.83)" fill-rule="evenodd">
   <path d="m669.25 155.36h10" fill="#fff"/>
   <path d="m645.25 132.35v-10" fill="#fff"/>
   <path d="m620.25 155.36h-10" fill="#fff"/>
   <path d="m645.25 177.36v10" fill="#fff"/>
   <path d="m611.25 75.087h3.0038v-11.855h-3.0038v11.855z" fill="#2b2828"/>
   <path d="m652.25 75.087h3.0038v-11.855h-3.0038v11.855z" fill="#2b2828"/>
   <path d="m693.25 75.087h3.0038v-11.855h-3.0038v11.855z" fill="#2b2828"/>
   <g transform="matrix(.38537 0 0 .39839 397.24 489.78)" fill="none" stroke="#fff" stroke-linecap="square" stroke-width="1.9114">
    <path d="m-9.2231-716.94h21.521v27.669h-21.521z"/>
    <path d="m-9.2231-707.72h21.521v9.2231h-21.521z"/>
   </g>
   <g transform="matrix(.77456 0 0 .77345 308.15 -80.488)" fill="#fff">
    <text x="400" y="192" fill="#fff" font-family="Arial" font-size="8">Num</text>
   </g>
   <g transform="matrix(.77456 0 0 .77345 308.15 -73.569)" fill="#fff">
    <text x="400" y="192" fill="#fff" font-family="Arial" font-size="8">Lock</text>
   </g>
   <g transform="matrix(.77456 0 0 .77345 349.72 -80.488)" fill="#fff">
    <text x="400" y="192" fill="#fff" font-family="Arial" font-size="8">Caps</text>
   </g>
   <g transform="matrix(.77456 0 0 .77345 349.72 -73.569)" fill="#fff">
    <text x="400" y="192" fill="#fff" font-family="Arial" font-size="8">Lock</text>
   </g>
   <g transform="matrix(.77456 0 0 .77345 390.3 -80.488)" fill="#fff">
    <text x="400" y="192" fill="#fff" font-family="Arial" font-size="8">Scroll</text>
   </g>
   <g transform="matrix(.77456 0 0 .77345 390.3 -73.569)" fill="#fff">
    <text x="400" y="192" fill="#fff" font-family="Arial" font-size="8">Lock</text>
   </g>
   <text transform="scale(1.0007 .99929)" x="607.6438" y="99.63441" fill="#fff" font-family="Arial" font-size="6.966">Num</text>
   <text transform="scale(1.0007 .99929)" x="607.6438" y="107.54657" fill="#fff" font-family="Arial" font-size="6.966">Lock</text>
   <text transform="scale(1.0007 .99929)" x="604.5813" y="125.62805" fill="#fff" font-family="Arial" font-size="9.288">7</text>
   <text transform="scale(1.0007 .99929)" x="604.5813" y="152.91251" fill="#fff" font-family="Arial" font-size="9.288">4</text>
   <text transform="scale(1.0007 .99929)" x="604.5813" y="181.18607" fill="#fff" font-family="Arial" font-size="9.288">1</text>
   <text transform="scale(1.0007 .99929)" x="636.34875" y="101.66447" fill="#fff" font-family="Arial" font-size="9.288">/</text>
   <text transform="scale(1.0007 .99929)" x="635.24036" y="125.62805" fill="#fff" font-family="Arial" font-size="9.288">8</text>
   <text transform="scale(1.0007 .99929)" x="635.24036" y="152.91251" fill="#fff" font-family="Arial" font-size="9.288">5</text>
   <text transform="scale(1.0007 .99929)" x="635.24036" y="181.18607" fill="#fff" font-family="Arial" font-size="9.288">2</text>
   <text transform="scale(1.0007 .99929)" x="665.03021" y="103.21249" fill="#fff" font-family="Arial" font-size="9.288">*</text>
   <text transform="scale(1.0007 .99929)" x="663.92188" y="125.62805" fill="#fff" font-family="Arial" font-size="9.288">9</text>
   <text transform="scale(1.0007 .99929)" x="663.92188" y="152.91251" fill="#fff" font-family="Arial" font-size="9.288">6</text>
   <text transform="scale(1.0007 .99929)" x="663.92188" y="181.18607" fill="#fff" font-family="Arial" font-size="9.288">3</text>
   <text transform="scale(1.0007 .99929)" x="604.5813" y="208.34929" fill="#fff" font-family="Arial" font-size="9.288">0</text>
   <text transform="scale(1.0007 .99929)" x="694.70099" y="100.67538" fill="#fff" font-family="Arial" font-size="9.288">-</text>
   <text transform="scale(1.0007 .99929)" x="693.68921" y="147.07765" fill="#fff" font-family="Arial" font-size="9.288">+</text>
   <text transform="matrix(1.0143 0 0 .98586 0 .68112)" x="527.72754" y="65.68645" fill="#fff" font-family="Arial" font-size="5.5132">Scroll</text>
   <text transform="matrix(1.0143 0 0 .98586 0 .68112)" x="527.72754" y="71.94849" fill="#fff" font-family="Arial" font-size="5.5132">Lock</text>
   <g transform="translate(0 1.3214)" fill="#fff">
    <text transform="scale(1.0143 .98586)" x="497.59082" y="67.89133" font-family="Arial" font-size="5.5132">Scrn</text>
    <text transform="scale(1.0143 .98586)" x="497.59082" y="61.62937" font-family="Arial" font-size="5.5132">Print</text>
    <text transform="scale(1.0143 .98586)" x="497.59082" y="74.15338" font-family="Arial" font-size="5.5132">SysRq</text>
    <path d="m502.24 68.482h20.858"/>
   </g>
   <text transform="matrix(1.0143 0 0 .98586 0 .68112)" x="555.96332" y="63.35103" fill="#fff" font-family="Arial" font-size="5.5132">Pause</text>
   <text transform="matrix(1.0143 0 0 .98586 0 .68112)" x="556.74628" y="74.30971" fill="#fff" font-family="Arial" font-size="5.5132">Break</text>
   <text transform="scale(1.0007 .99929)" x="535.94293" y="103.5257" fill="#fff" font-family="Arial" font-size="5.515">Home</text>
   <text transform="scale(1.0007 .99929)" x="539.07501" y="129.25505" fill="#fff" font-family="Arial" font-size="5.515">End</text>
   <text transform="scale(1.0007 .99929)" x="566.21973" y="126.12305" fill="#fff" font-family="Arial" font-size="5.515">Page</text>
   <text transform="scale(1.0007 .99929)" x="566.21973" y="132.38708" fill="#fff" font-family="Arial" font-size="5.515">Down</text>
   <text transform="scale(1.0007 .99929)" x="567.00214" y="99.61057" fill="#fff" font-family="Arial" font-size="5.515">Page</text>
   <text transform="scale(1.0007 .99929)" x="567.00214" y="105.87495" fill="#fff" font-family="Arial" font-size="5.515">Up</text>
   <text transform="scale(1.0007 .99929)" x="505.23175" y="103.5257" fill="#fff" font-family="Arial" font-size="5.515">Insert</text>
   <text transform="scale(1.0007 .99929)" x="504.44855" y="129.25505" fill="#fff" font-family="Arial" font-size="5.515">Delete</text>
   <text transform="scale(1.0007 .99929)" x="695.66681" y="199.97729" fill="#fff" font-family="Arial" font-size="6.966">Enter</text>
   <text transform="scale(.93616 1.0682)" x="647.76019" y="176.85127" fill="#fff" font-family="Arial" font-size="6.5167">End</text>
   <text transform="scale(.93616 1.0682)" x="647.76019" y="126.84114" fill="#fff" font-family="Arial" font-size="6.5167">Home</text>
   <text transform="scale(.96834,1.0327)" x="685.80634" y="131.20078" fill="#fff" font-family="Arial" font-size="6.7407">PgUp</text>
   <text transform="scale(.96834,1.0327)" x="686.76361" y="182.92981" fill="#fff" font-family="Arial" font-size="6.7407">PgDn</text>
   <text transform="scale(1.0007 .99929)" x="663.02917" y="217.3196" fill="#fff" font-family="Arial" font-size="6.966">Del</text>
   <text transform="scale(1.0007 .99929)" x="664.01849" y="205.91124" fill="#fff" font-family="Arial" font-size="6.966">.</text>
   <text transform="scale(1.0007 .99929)" x="604.67694" y="217.3196" fill="#fff" font-family="Arial" font-size="6.966">Ins</text>
   <path d="m543.81 203.92v10.031h1v-10.031h-1z" fill="#fff"/>
   <path d="m544.33 216.26-2.0025-3.4643h4.005l-2.0025 3.4643z" fill="#fff" fill-rule="evenodd"/>
   <path d="m509.28 210.39v1h10v-1h-10z" fill="#fff"/>
   <path d="m506.97 210.88 3.4643-2.0025v4.005l-3.4643-2.0025z" fill="#fff" fill-rule="evenodd"/>
   <path d="m569.34 210.39v1h10.031v-1h-10.031z" fill="#fff"/>
   <path d="m581.68 210.88-3.4643 2.0025v-4.005l3.4643 2.0025z" fill="#fff" fill-rule="evenodd"/>
   <path d="m543.81 178.83v10.031h1v-10.031h-1z" fill="#fff"/>
   <path d="m544.33 176.53 2.0025 3.4643h-4.005l2.0025-3.4643z" fill="#fff" fill-rule="evenodd"/>
   <path d="m647.59 124.76v10.031h1v-10.031h-1z" fill="#fff" fill-rule="nonzero"/>
   <path d="m648.1 122.47 2.0025 3.4643h-4.005l2.0025-3.4643z" fill="#fff" fill-rule="evenodd"/>
   <path d="m647.59 178.83v10.031h1v-10.031h-1z" fill="#fff" fill-rule="nonzero"/>
   <path d="m648.1 191.17-2.0025-3.4643h4.005l-2.0025 3.4643z" fill="#fff" fill-rule="evenodd"/>
   <path d="m668.12 156.33v1h10v-1h-10z" fill="#fff" fill-rule="nonzero"/>
   <path d="m680.45 156.82-3.4643 2.0025v-4.005l3.4643 2.0025z" fill="#fff" fill-rule="evenodd"/>
   <path d="m613.06 156.33v1h10v-1h-10z" fill="#fff" fill-rule="nonzero"/>
   <path d="m610.75 156.82 3.4643-2.0025v4.005l-3.4643-2.0025z" fill="#fff" fill-rule="evenodd"/>
   <g transform="matrix(.68102 0 0 .77345 -165.09 -82.27)" fill="#fff">
    <text x="400" y="192" fill="#fff" font-family="Arial" font-size="13">F1</text>
   </g>
   <g transform="matrix(.68102 0 0 .77345 -135.84 -82.27)" fill="#fff">
    <text x="400" y="192" fill="#fff" font-family="Arial" font-size="13">F2</text>
   </g>
   <g transform="matrix(.68102 0 0 .77345 -105.73 -82.27)" fill="#fff">
    <text x="400" y="192" fill="#fff" font-family="Arial" font-size="13">F3</text>
   </g>
   <g transform="matrix(.68102 0 0 .77345 -75.623 -82.3)" fill="#fff">
    <text x="400" y="192" fill="#fff" font-family="Arial" font-size="13">F4</text>
   </g>
   <g transform="matrix(.68102 0 0 .77345 -32.025 -82.3)" fill="#fff">
    <text x="400" y="192" fill="#fff" font-family="Arial" font-size="13">F5</text>
   </g>
   <g transform="matrix(.68102 0 0 .77345 -1.563 -82.27)" fill="#fff">
    <text x="400" y="192" fill="#fff" font-family="Arial" font-size="13">F6</text>
   </g>
   <g transform="matrix(.68102 0 0 .77345 28.982 -82.3)" fill="#fff">
    <text x="400" y="192" fill="#fff" font-family="Arial" font-size="13">F7</text>
   </g>
   <g transform="matrix(.68102 0 0 .77345 57.09 -82.27)" fill="#fff">
    <text x="400" y="192" fill="#fff" font-family="Arial" font-size="13">F8</text>
   </g>
   <g transform="matrix(.68102 0 0 .77345 101.39 -82.27)" fill="#fff">
    <text x="400" y="192" fill="#fff" font-family="Arial" font-size="13">F9</text>
   </g>
   <g transform="matrix(.68102 0 0 .77345 130.21 -82.27)" fill="#fff">
    <text x="400" y="192" fill="#fff" font-family="Arial" font-size="13">F10</text>
   </g>
   <g transform="matrix(.68102 0 0 .77345 160.41 -82.27)" fill="#fff">
    <text x="400" y="192" fill="#fff" font-family="Arial" font-size="13">F11</text>
   </g>
   <g transform="matrix(.68102 0 0 .77345 189.65 -82.27)" fill="#fff">
    <text x="400" y="192" fill="#fff" font-family="Arial" font-size="13">F12</text>
   </g>
   <g transform="matrix(.77456 0 0 .77345 -258.87 -79.499)" fill="#fff">
    <text x="400" y="192" fill="#fff" font-family="Arial" font-size="9">Esc</text>
   </g>
   <g transform="matrix(.72297 0 0 .77345 -212.48 -39.082)" fill="#fff">
    <text x="400" y="192" fill="#fff" font-family="Arial" font-size="12">1</text>
   </g>
   <g transform="matrix(.72297 0 0 .77345 -181.68 -39.082)" fill="#fff">
    <text x="400" y="192" fill="#fff" font-family="Arial" font-size="12">2</text>
   </g>
   <g transform="matrix(.72297 0 0 .77345 -153.97 -39.082)" fill="#fff">
    <text x="400" y="192" fill="#fff" font-family="Arial" font-size="12">3</text>
   </g>
   <g transform="matrix(.72297 0 0 .77345 -124.25 -39.082)" fill="#fff">
    <text x="400" y="192" fill="#fff" font-family="Arial" font-size="12">4</text>
   </g>
   <g transform="matrix(.72297 0 0 .77345 -93.609 -39.082)" fill="#fff">
    <text x="400" y="192" fill="#fff" font-family="Arial" font-size="12">5</text>
   </g>
   <g transform="matrix(.72297 0 0 .77345 -63.892 -39.082)" fill="#fff">
    <text x="400" y="192" fill="#fff" font-family="Arial" font-size="12">6</text>
   </g>
   <g transform="matrix(.72297 0 0 .77345 -34.176 -39.082)" fill="#fff">
    <text x="400" y="192" fill="#fff" font-family="Arial" font-size="12">7</text>
   </g>
   <g transform="matrix(.72297 0 0 .77345 -5.3832 -39.082)" fill="#fff">
    <text x="400" y="192" fill="#fff" font-family="Arial" font-size="12">8</text>
   </g>
   <g transform="matrix(.72297 0 0 .77345 24.333 -39.082)" fill="#fff">
    <text x="400" y="192" fill="#fff" font-family="Arial" font-size="12">9</text>
   </g>
   <g transform="matrix(.72297 0 0 .77345 54.974 -39.082)" fill="#fff">
    <text x="400" y="192" fill="#fff" font-family="Arial" font-size="12">0</text>
   </g>
   <path d="m479 99.992h-11" fill="#fff"/>
   <g transform="matrix(.62133 0 0 .60014 65.902 -17.843)" fill="#fff">
    <text x="400" y="194" fill="#fff" font-family="Arial" font-size="12">(</text>
   </g>
   <g transform="matrix(.62133 0 0 .60014 96.521 -17.843)" fill="#fff">
    <text x="400" y="194" fill="#fff" font-family="Arial" font-size="12">)</text>
   </g>
   <g transform="matrix(.62133 0 0 .60014 36.87 -17.843)" fill="#fff">
    <text x="400" y="194" fill="#fff" font-family="Arial" font-size="12">*</text>
   </g>
   <g transform="matrix(.62133 0 0 .60014 6.2502 -17.076)" fill="#fff">
    <text x="400" y="192" fill="#fff" font-family="Arial" font-size="12">&amp;</text>
   </g>
   <g transform="matrix(.62133 0 0 .60014 -22.781 -17.076)" fill="#fff">
    <text x="400" y="192" fill="#fff" font-family="Arial" font-size="12">^</text>
   </g>
   <g transform="matrix(.62133 0 0 .60014 -53.402 -17.076)" fill="#fff">
    <text x="400" y="192" fill="#fff" font-family="Arial" font-size="12">%</text>
   </g>
   <g transform="matrix(.62133 0 0 .60014 -83.227 -17.076)" fill="#fff">
    <text x="400" y="192" fill="#fff" font-family="Arial" font-size="12">$</text>
   </g>
   <g transform="matrix(.62133 0 0 .60014 -113.05 -17.076)" fill="#fff">
    <text x="400" y="192" fill="#fff" font-family="Arial" font-size="12">#</text>
   </g>
   <g transform="matrix(.62133 0 0 .60014 -141.67 -17.076)" fill="#fff">
    <text x="400" y="192" fill="#fff" font-family="Arial" font-size="12">@</text>
   </g>
   <g transform="matrix(.62133 0 0 .60014 -169.91 -17.076)" fill="#fff">
    <text x="400" y="192" fill="#fff" font-family="Arial" font-size="12">!</text>
   </g>
   <g transform="matrix(.72297 0 0 .77345 -242.19 -38.094)" fill="#fff">
    <text x="400" y="192" fill="#fff" font-family="Arial" font-size="12">`</text>
   </g>
   <g transform="matrix(.62133 0 0 .60014 -202.53 -17.076)" fill="#fff">
    <text x="400" y="192" fill="#fff" font-family="Arial" font-size="12">~</text>
   </g>
   <g transform="matrix(.72297 0 0 .77345 85.769 -39.082)" fill="#fff">
    <text x="400" y="192" fill="#fff" font-family="Arial" font-size="12">-</text>
   </g>
   <g transform="matrix(.62133 0 0 .60014 125.55 -17.843)" fill="#fff">
    <text x="400" y="192" fill="#fff" font-family="Arial" font-size="12">_</text>
   </g>
   <g transform="matrix(.72297 0 0 .77345 115.49 -39.082)" fill="#fff">
    <text x="400" y="192" fill="#fff" font-family="Arial" font-size="12">=</text>
   </g>
   <g transform="matrix(.62133 0 0 .60014 155.38 -17.843)" fill="#fff">
    <text x="400" y="192" fill="#fff" font-family="Arial" font-size="12">+</text>
   </g>
   <g transform="matrix(.72297 0 0 .77345 146.13 -39.082)" fill="#fff">
    <text x="400" y="192" fill="#fff" font-family="Arial" font-size="12">\</text>
   </g>
   <g transform="matrix(.62133 0 0 .60014 186 -17.843)" fill="#fff">
    <text x="400" y="194" fill="#fff" font-family="Arial" font-size="12">|</text>
   </g>
   <g transform="translate(0 -6.0075)" fill="#fff">
    <path d="m468.34 106.34v1h12.25v-1h-12.25z" fill-rule="nonzero"/>
    <path d="m466.03 106.85 3.4643-2.0025v4.005l-3.4643-2.0025z" fill-rule="evenodd"/>
   </g>
   <g transform="matrix(.77456 0 0 .77345 150.88 65.168)" fill="#fff">
    <text x="400" y="192" fill="#fff" font-family="Arial" font-size="9">Ctrl</text>
   </g>
   <g transform="matrix(.77456 0 0 .77345 -252.93 65.168)" fill="#fff">
    <text x="400" y="192" fill="#fff" font-family="Arial" font-size="9">Ctrl</text>
   </g>
   <g transform="matrix(.77456 0 0 .77345 -185.63 64.18)" fill="#fff">
    <text x="400" y="192" fill="#fff" font-family="Arial" font-size="9">Alt</text>
   </g>
   <text transform="matrix(.96538 0 0 1.0359 0 -2.6428)" x="108.40627" y="153.59921" fill="#fff" font-family="Arial" font-size="11.108">A</text>
   <text transform="matrix(.96538 0 0 1.0359 0 -2.6428)" x="137.00122" y="153.59921" fill="#fff" font-family="Arial" font-size="11.108">S</text>
   <text transform="matrix(.96538 0 0 1.0359 0 -2.6428)" x="168.16722" y="153.59921" fill="#fff" font-family="Arial" font-size="11.108">D</text>
   <text transform="matrix(.96538 0 0 1.0359 0 -2.6428)" x="198.8365" y="153.59921" fill="#fff" font-family="Arial" font-size="11.108">F</text>
   <text transform="matrix(.96538 0 0 1.0359 0 -2.6428)" x="228.50243" y="153.59921" fill="#fff" font-family="Arial" font-size="11.108">G</text>
   <text transform="matrix(.96538 0 0 1.0359 0 -2.6428)" x="260.45703" y="153.59921" fill="#fff" font-family="Arial" font-size="11.108">H</text>
   <text transform="matrix(.96538 0 0 1.0359 0 -2.6428)" x="291.91434" y="153.59921" fill="#fff" font-family="Arial" font-size="11.108">J</text>
   <text transform="matrix(.96538 0 0 1.0359 0 -2.6428)" x="322.29178" y="153.59921" fill="#fff" font-family="Arial" font-size="11.108">K</text>
   <text transform="matrix(.96538 0 0 1.0359 0 -2.6428)" x="352.96078" y="153.59921" fill="#fff" font-family="Arial" font-size="11.108">L</text>
   <g transform="matrix(.77456 0 0 .77345 -247.98 5.8181)" fill="#fff">
    <text x="400" y="192" fill="#fff" font-family="Arial" font-size="9">Caps</text>
   </g>
   <g transform="matrix(.77456 0 0 .77345 -247.98 13.725)" fill="#fff">
    <text x="400" y="192" fill="#fff" font-family="Arial" font-size="9">Lock</text>
   </g>
   <g transform="matrix(.77456 0 0 .77345 61.825 13.699)" fill="#fff">
    <text x="400" y="192" fill="#fff" font-family="Arial" font-size="12">;</text>
   </g>
   <g transform="matrix(.77456 0 0 .77345 61.825 4.3008)" fill="#fff">
    <text x="400" y="192" fill="#fff" font-family="Arial" font-size="12">:</text>
   </g>
   <g transform="matrix(.77456 0 0 .77345 91.516 16.689)" fill="#fff">
    <text x="400" y="192" fill="#fff" font-family="Arial" font-size="12">'</text>
   </g>
   <g transform="matrix(.77456 0 0 .77345 90.526 5.8438)" fill="#fff">
    <text x="400" y="192" fill="#fff" font-family="Arial" font-size="12">"</text>
   </g>
   <g transform="translate(0,-.64026)" fill="#fff">
    <text transform="scale(.96538 1.0359)" x="118.79477" y="177.18007" font-family="Arial" font-size="11.108">Z</text>
    <text transform="scale(.96538 1.0359)" x="150.17511" y="177.18007" font-family="Arial" font-size="11.108">X</text>
    <text transform="scale(.96538 1.0359)" x="180.63008" y="177.18007" font-family="Arial" font-size="11.108">C</text>
    <text transform="scale(.96538 1.0359)" x="212.58409" y="177.18007" font-family="Arial" font-size="11.108">V</text>
    <text transform="scale(.96538 1.0359)" x="241.89034" y="177.18007" font-family="Arial" font-size="11.108">B</text>
    <text transform="scale(.96538 1.0359)" x="273.27066" y="177.18007" font-family="Arial" font-size="11.108">N</text>
    <text transform="scale(.96538 1.0359)" x="303.86185" y="177.18007" font-family="Arial" font-size="11.108">M</text>
    <g transform="matrix(.77456 0 0 .77345 -242.04 38.11)">
     <text x="400" y="192" fill="#fff" font-family="Arial" font-size="9">Shift</text>
    </g>
    <g transform="matrix(.77456 0 0 .77345 130.09 38.11)">
     <text x="400" y="192" fill="#fff" font-family="Arial" font-size="9">Shift</text>
    </g>
    <g transform="matrix(.77456 0 0 .77345 73.482 43.364)">
     <text x="400" y="192" fill="#fff" font-family="Arial" font-size="12">/</text>
    </g>
    <g transform="matrix(.77456 0 0 .77345 72.927 33.289)">
     <text x="400" y="192" fill="#fff" font-family="Arial" font-size="12">?</text>
    </g>
    <g transform="matrix(.77456 0 0 .77345 43.671 41.146)">
     <text x="400" y="192" fill="#fff" font-family="Arial" font-size="12">.</text>
    </g>
    <g transform="matrix(.77456 0 0 .77345 42.681 33.289)">
     <text x="400" y="192" fill="#fff" font-family="Arial" font-size="12">&gt;</text>
    </g>
    <g transform="matrix(.77456 0 0 .77345 13.544 40.591)">
     <text x="400" y="192" fill="#fff" font-family="Arial" font-size="12">,</text>
    </g>
    <g transform="matrix(.77456 0 0 .77345 12.554 33.289)">
     <text x="400" y="192" fill="#fff" font-family="Arial" font-size="12">&lt;</text>
    </g>
   </g>
   <g transform="matrix(.77456 0 0 .77345 49.697 64.18)" fill="#fff">
    <text x="400" y="192" fill="#fff" font-family="Arial" font-size="9">Alt Gr</text>
   </g>
   <g transform="translate(0 -4.6453)" fill="#fff">
    <g transform="matrix(.59577 0 0 .63927 -143.16 10.465)">
     <text x="400" y="192" fill="#fff" font-family="Arial" font-size="18">Q</text>
    </g>
    <g transform="matrix(.59577 0 0 .63927 -113.83 10.465)">
     <text x="400" y="192" fill="#fff" font-family="Arial" font-size="18">W</text>
    </g>
    <g transform="matrix(.59577 0 0 .63927 -84.707 10.465)">
     <text x="400" y="192" fill="#fff" font-family="Arial" font-size="18">E</text>
    </g>
    <g transform="matrix(.59577 0 0 .63927 -54.62 10.465)">
     <text x="400" y="192" fill="#fff" font-family="Arial" font-size="18">R</text>
    </g>
    <g transform="matrix(.59577 0 0 .63927 -23.011 10.465)">
     <text x="400" y="192" fill="#fff" font-family="Arial" font-size="18">T</text>
    </g>
    <g transform="matrix(.59577 0 0 .63927 5.8351 10.465)">
     <text x="400" y="192" fill="#fff" font-family="Arial" font-size="18">Y</text>
    </g>
    <g transform="matrix(.59577 0 0 .63927 36.683 10.465)">
     <text x="400" y="192" fill="#fff" font-family="Arial" font-size="18">U</text>
    </g>
    <g transform="matrix(.59577 0 0 .63927 65.811 10.465)">
     <text x="400" y="192" fill="#fff" font-family="Arial" font-size="18">I</text>
    </g>
    <g transform="matrix(.59577 0 0 .63927 95.617 10.465)">
     <text x="400" y="192" fill="#fff" font-family="Arial" font-size="18">O</text>
    </g>
    <g transform="matrix(.59577 0 0 .63927 125.22 10.465)">
     <text x="400" y="192" fill="#fff" font-family="Arial" font-size="18">P</text>
    </g>
    <g transform="matrix(.76125 0 0 .65346 90.116 15.08)">
     <text x="400" y="192" fill="#fff" font-family="Arial" font-size="12">[</text>
    </g>
    <g transform="matrix(.76125 0 0 .65346 89.143 4.2251)">
     <text x="400" y="192" fill="#fff" font-family="Arial" font-size="12">{</text>
    </g>
    <g transform="matrix(.76125 0 0 .65346 119.22 15.08)">
     <text x="400" y="192" fill="#fff" font-family="Arial" font-size="12">]</text>
    </g>
    <g transform="matrix(.76125 0 0 .65346 119.22 4.2251)">
     <text x="400" y="192" fill="#fff" font-family="Arial" font-size="12">}</text>
    </g>
    <g transform="matrix(.77456 0 0 .77345 -262.83 -18.224)">
     <text x="400" y="192" fill="#fff" font-family="Arial" font-size="9">Tab</text>
    </g>
    <path d="m72.094 126.91v1h10v-1h-10z" fill-rule="nonzero"/>
    <path d="m69.782 127.42 3.4609-2.0005v4.001l-3.4609-2.0005z" fill-rule="evenodd"/>
    <path d="m69.086 125.42v4.005" stroke="#fff" stroke-width="1.0002"/>
    <g fill-rule="evenodd">
     <path d="m69.094 134.94v1h10v-1h-10z"/>
     <path d="m81.407 135.43-3.4609 2.0005v-4.001l3.4609 2.0005z"/>
    </g>
    <path d="m81.594 133.44v4h1v-4h-1z" fill-rule="evenodd"/>
   </g>
   <g transform="translate(0 -2.6428)" fill="#fff">
    <path d="m470.09 144.44v9.5h-19.531v1.0312h20.531v-10.531h-1z"/>
    <path d="m448.25 154.45 3.4643-2.0025v4.005l-3.4643-2.0025z" fill-rule="evenodd"/>
   </g>
   <path d="m93.128 204.37-1.5338 3.9146 4.4392 1.3461 1.5338-3.9146-4.4392-1.346zm5.7729 1.7504-1.5338 3.9146 4.4392 1.346 1.5339-3.9146-4.4392-1.3461zm-7.7661 3.3366-1.5338 3.9146 4.4392 1.346 1.5339-3.9146-4.4392-1.346zm5.7729 1.7504-1.5339 3.9146 4.4392 1.346 1.5339-3.9146-4.4392-1.3461z" fill="#fff"/>
   <path d="m402.27 209.24 2.7857 2.1051 1.2895-1.1457-2.7857-2.1051 0.75153-0.6723-3.9883-0.67134 1.1383 3.2035z" fill="#fff"/>
  </g>
  <g transform="translate(-20.69 10.345)">
   <path transform="matrix(1.0224 0 0 .84582 -128.59 -50.858)" d="m849.61-508.47c-6.6451 5.2552-19.253 9.4825-35.119 10.21-25.534-1.1571-67.689-12.27-82.85-22.745-1.7203-5.0325 1.6447-13.541 6.0288-18.109 33.506-2.0264 89.886 5.08 117.31 16.799 0.45493 6.7419 0.37203 9.3075-5.3654 13.845z" fill="#333" filter="url(#ac)"/>
   <path d="m736.96-484.33c-6.6451 5.2552-19.253 9.4825-35.119 10.21-25.534-1.1571-67.689-12.27-82.85-22.745-1.7203-5.0325 1.6447-13.541 6.0288-18.109 11.744-12.237 54.052-16.392 80.994-10.283 19.458 4.4116 32.329 17.968 36.312 27.082 0.45493 6.7419 0.37203 9.3075-5.3654 13.845z" fill="#333"/>
   <path d="m736.96-484.33c-6.6451 5.2552-19.253 9.4825-35.119 10.21-25.534-1.1571-67.689-12.27-82.85-22.745-1.7203-5.0325 1.6447-13.541 6.0288-18.109 26.288-13.428 61.279 4.1796 78.74 21.255 16.511 16.147 37.977 2.2714 38.566-4.4562 0.45493 6.7419 0.37203 9.3075-5.3654 13.845z" fill="#1a1a1a"/>
   <path d="m736.56-486.66c-6.6451 5.2552-19.253 9.4825-35.119 10.21-25.534-1.1571-67.689-12.27-82.85-22.745-0.90754-4.8664 2.051-11.215 6.4352-15.784 11.744-12.237 54.052-16.392 80.994-10.283 19.458 4.4116 32.353 17.992 36.336 27.105-0.40713 6.507-0.059 6.9581-5.7965 11.496z" fill="url(#h)"/>
   <path d="m702.86-477.94c-25.534-1.1571-65.861-11.44-81.022-21.914 47.179-13.541 78.181 6.7815 81.022 21.914z" fill="url(#t)"/>
   <path d="m622.45-500.03c23.589-6.7707 43.135-5.0753 57.138 0.20428s22.464 14.143 23.884 21.71" fill="none" stroke="url(#s)" stroke-width=".4521"/>
   <path d="m626.22-513.41c-2.6274 0.4407-1.7628-0.96397 1.8307-3.4161 16.026-7.0585 34.329-10.596 28.995-5.0342-2.3526 2.4529-13.535 3.0168-30.825 8.4504z"/>
   <path d="m639.1-519.34c0.38979-2.5362 4.0919-4.6812 6.9087-5.2226 3.3724-0.64819 5.8691 0.77407 7.2463 1.9398 0.47819 1.1112-0.92918 1.474-6.575 2.9373s-8.0587 1.7284-7.58 0.34546z" fill="#666"/>
   <path transform="matrix(1.16 0 0 1.1488 213 35.107)" d="m367.81-482.63c0.24308-1.6364 2.5518-3.0205 4.3084-3.3698 2.1031-0.41824 3.66 0.49945 4.5189 1.2517 0.29821 0.71701-0.57946 0.95107-4.1002 1.8953s-5.0255 1.1152-4.727 0.2229z" fill="#b3b3b3" filter="url(#ad)"/>
   <path d="m627.03-514.17c-2.6274 0.4407-2.5756 0.30599 1.0179-2.1462 10.264-4.1786 4.2886 0.37743 16.801-2.3369-5.0063 1.0007-15.4 3.3879-17.819 4.483z" fill="#666"/>
  </g>
 </g>
</svg>
