<?xml version="1.0" encoding="UTF-8" standalone="no"?>
<!-- Created with Inkscape (http://www.inkscape.org/) -->

<svg
   xmlns:dc="http://purl.org/dc/elements/1.1/"
   xmlns:cc="http://creativecommons.org/ns#"
   xmlns:rdf="http://www.w3.org/1999/02/22-rdf-syntax-ns#"
   xmlns:svg="http://www.w3.org/2000/svg"
   xmlns="http://www.w3.org/2000/svg"
   xmlns:sodipodi="http://sodipodi.sourceforge.net/DTD/sodipodi-0.dtd"
   xmlns:inkscape="http://www.inkscape.org/namespaces/inkscape"
   width="800"
   height="600"
   viewBox="0 0 211.66666 158.75"
   version="1.1"
   id="svg8"
   sodipodi:docname="ebay.svg"
   inkscape:version="0.92.3 (2405546, 2018-03-11)">
  <defs
     id="defs2" />
  <sodipodi:namedview
     id="base"
     pagecolor="#ffffff"
     bordercolor="#666666"
     borderopacity="1.0"
     inkscape:pageopacity="0.0"
     inkscape:pageshadow="2"
     inkscape:zoom="1.38"
     inkscape:cx="400"
     inkscape:cy="300"
     inkscape:document-units="mm"
     inkscape:current-layer="layer1"
     showgrid="false"
     units="px"
     inkscape:window-width="1265"
     inkscape:window-height="1395"
     inkscape:window-x="1285"
     inkscape:window-y="35"
     inkscape:window-maximized="0" />
  <metadata
     id="metadata5">
    <rdf:RDF>
      <cc:Work
         rdf:about="">
        <dc:format>image/svg+xml</dc:format>
        <dc:type
           rdf:resource="http://purl.org/dc/dcmitype/StillImage" />
        <dc:title></dc:title>
      </cc:Work>
    </rdf:RDF>
  </metadata>
  <g
     inkscape:label="Layer 1"
     inkscape:groupmode="layer"
     id="layer1"
     transform="translate(0,-138.24998)">
    <g
       id="g831"
       transform="matrix(0.4805587,0,0,0.4805587,33.749529,188.71354)"
       style="stroke-width:0.55057442">
      <path
         style="fill:#e53238;fill-opacity:1;stroke:none;stroke-width:0.55057442"
         d="m 38.866448,26.308378 c -21.145729,0 -38.76645103,8.97108 -38.76645103,36.036419 0,21.441707 11.84866003,34.944406 39.31245703,34.944406 32.326175,0 34.3984,-21.294248 34.3984,-21.294248 H 58.147297 c 0,0 -3.358398,11.466134 -19.690354,11.466134 -13.301932,0 -22.869203,-8.985845 -22.869203,-21.580814 h 59.861133 v -7.903529 c 0,-12.460384 -7.91007,-31.668368 -36.582425,-31.668368 z m -0.546007,10.101117 c 12.662062,0 21.294248,7.757047 21.294248,19.383225 H 15.934181 c 0,-12.34261 11.267202,-19.383225 22.38626,-19.383225 z"
         id="e"
         inkscape:connector-curvature="0" />
      <path
         style="fill:#0064d2;fill-opacity:1;stroke:none;stroke-width:0.55057442"
         d="M 75.437762,0.10007279 V 83.697096 c 0,4.745232 -0.338677,11.408082 -0.338677,11.408082 h 14.939733 c 0,0 0.536238,-4.785353 0.536238,-9.1587 0,0 7.381193,11.547477 27.451204,11.547477 21.13453,0 35.49041,-14.673014 35.49041,-35.695165 0,-19.556604 -13.18634,-35.28566 -35.45629,-35.28566 -20.854235,0 -27.33444,11.261381 -27.33444,11.261381 V 0.10007279 Z M 114.20421,36.853125 c 14.35199,0 23.47828,10.651661 23.47828,24.945665 0,15.327725 -10.54056,25.35517 -23.3759,25.35517 -15.317854,0 -23.58065,-11.960116 -23.58065,-25.218668 0,-12.354387 7.414449,-25.082167 23.47827,-25.082167 z"
         id="b"
         inkscape:connector-curvature="0" />
      <path
         style="fill:#f5af02;fill-opacity:1;stroke:none;stroke-width:0.55057442"
         d="m 190.6451,26.308378 c -31.81215,0 -33.85239,17.418776 -33.85239,20.202235 h 15.83418 c 0,0 0.83034,-10.169369 16.9262,-10.169369 10.45935,0 18.56422,4.787411 18.56422,13.991413 v 3.276038 h -18.56422 c -24.64532,0 -37.67444,7.20973 -37.67444,21.840254 0,14.398537 12.03849,22.232696 28.30702,22.232696 22.17148,0 29.31371,-12.251017 29.31371,-12.251017 0,4.872784 0.37568,9.67455 0.37568,9.67455 h 14.07643 c 0,0 -0.54601,-5.951939 -0.54601,-9.759864 V 52.431369 c 0,-21.581223 -17.40751,-26.122991 -32.76038,-26.122991 z m 17.47221,37.128431 v 4.368051 c 0,5.697129 -3.51553,19.860981 -24.21197,19.860981 -11.3333,0 -16.1925,-5.656156 -16.1925,-12.216892 0,-11.935273 16.36378,-12.01214 40.40447,-12.01214 z"
         id="a"
         inkscape:connector-curvature="0" />
      <path
         style="fill:#86b817;fill-opacity:1;stroke:none;stroke-width:0.55057442"
         d="m 214.87901,29.041161 h 17.81346 l 25.56479,51.217345 25.5063,-51.217345 H 299.9 l -46.45929,91.183029 h -16.9262 l 13.40641,-25.418513 z"
         id="y"
         inkscape:connector-curvature="0" />
    </g>
  </g>
</svg>
