<?xml version="1.0" encoding="UTF-8" standalone="no"?>
<!-- Created with Inkscape (http://www.inkscape.org/) -->

<svg
   xmlns:dc="http://purl.org/dc/elements/1.1/"
   xmlns:cc="http://creativecommons.org/ns#"
   xmlns:rdf="http://www.w3.org/1999/02/22-rdf-syntax-ns#"
   xmlns:svg="http://www.w3.org/2000/svg"
   xmlns="http://www.w3.org/2000/svg"
   xmlns:sodipodi="http://sodipodi.sourceforge.net/DTD/sodipodi-0.dtd"
   xmlns:inkscape="http://www.inkscape.org/namespaces/inkscape"
   width="800"
   height="600"
   viewBox="0 0 211.66666 158.75"
   version="1.1"
   id="svg8"
   sodipodi:docname="google.svg"
   inkscape:version="0.92.3 (2405546, 2018-03-11)">
  <defs
     id="defs2" />
  <sodipodi:namedview
     id="base"
     pagecolor="#ffffff"
     bordercolor="#666666"
     borderopacity="1.0"
     inkscape:pageopacity="0.0"
     inkscape:pageshadow="2"
     inkscape:zoom="1.38"
     inkscape:cx="400"
     inkscape:cy="300"
     inkscape:document-units="mm"
     inkscape:current-layer="layer1"
     showgrid="false"
     units="px"
     inkscape:window-width="1265"
     inkscape:window-height="1395"
     inkscape:window-x="1285"
     inkscape:window-y="35"
     inkscape:window-maximized="0" />
  <metadata
     id="metadata5">
    <rdf:RDF>
      <cc:Work
         rdf:about="">
        <dc:format>image/svg+xml</dc:format>
        <dc:type
           rdf:resource="http://purl.org/dc/dcmitype/StillImage" />
        <dc:title></dc:title>
      </cc:Work>
    </rdf:RDF>
  </metadata>
  <g
     inkscape:label="Layer 1"
     inkscape:groupmode="layer"
     id="layer1"
     transform="translate(0,-138.24998)">
    <g
       id="g878"
       transform="matrix(0.59727317,0,0,0.59727317,25.093946,190.83728)"
       style="stroke-width:0.44298548">
      <path
         id="path852"
         d="m 115.75,47.18 c 0,12.77 -9.99,22.18 -22.25,22.18 C 81.24,69.36 71.25,59.95 71.25,47.18 71.25,34.32 81.24,25 93.5,25 c 12.26,0 22.25,9.32 22.25,22.18 z m -9.74,0 c 0,-7.98 -5.79,-13.44 -12.51,-13.44 -6.72,0 -12.51,5.46 -12.51,13.44 0,7.9 5.79,13.44 12.51,13.44 6.72,0 12.51,-5.55 12.51,-13.44 z"
         inkscape:connector-curvature="0"
         style="fill:#ea4335;stroke-width:0.44298548" />
      <path
         id="path854"
         d="m 163.75,47.18 c 0,12.77 -9.99,22.18 -22.25,22.18 -12.26,0 -22.25,-9.41 -22.25,-22.18 0,-12.85 9.99,-22.18 22.25,-22.18 12.26,0 22.25,9.32 22.25,22.18 z m -9.74,0 c 0,-7.98 -5.79,-13.44 -12.51,-13.44 -6.72,0 -12.51,5.46 -12.51,13.44 0,7.9 5.79,13.44 12.51,13.44 6.72,0 12.51,-5.55 12.51,-13.44 z"
         inkscape:connector-curvature="0"
         style="fill:#fbbc05;stroke-width:0.44298548" />
      <path
         id="path856"
         d="m 209.75,26.34 v 39.82 c 0,16.38 -9.66,23.07 -21.08,23.07 -10.75,0 -17.22,-7.19 -19.66,-13.07 l 8.48,-3.53 c 1.51,3.61 5.21,7.87 11.17,7.87 7.31,0 11.84,-4.51 11.84,-13 v -3.19 h -0.34 c -2.18,2.69 -6.38,5.04 -11.68,5.04 -11.09,0 -21.25,-9.66 -21.25,-22.09 0,-12.52 10.16,-22.26 21.25,-22.26 5.29,0 9.49,2.35 11.68,4.96 h 0.34 v -3.61 h 9.25 z m -8.56,20.92 c 0,-7.81 -5.21,-13.52 -11.84,-13.52 -6.72,0 -12.35,5.71 -12.35,13.52 0,7.73 5.63,13.36 12.35,13.36 6.63,0 11.84,-5.63 11.84,-13.36 z"
         inkscape:connector-curvature="0"
         style="fill:#4285f4;stroke-width:0.44298548" />
      <path
         id="path858"
         d="m 225,3 v 65 h -9.5 V 3 Z"
         inkscape:connector-curvature="0"
         style="fill:#34a853;stroke-width:0.44298548" />
      <path
         id="path860"
         d="m 262.02,54.48 7.56,5.04 c -2.44,3.61 -8.32,9.83 -18.48,9.83 -12.6,0 -22.01,-9.74 -22.01,-22.18 0,-13.19 9.49,-22.18 20.92,-22.18 11.51,0 17.14,9.16 18.98,14.11 L 270,41.62 240.35,53.9 c 2.27,4.45 5.8,6.72 10.75,6.72 4.96,0 8.4,-2.44 10.92,-6.14 z m -23.27,-7.98 19.82,-8.23 c -1.09,-2.77 -4.37,-4.7 -8.23,-4.7 -4.95,0 -11.84,4.37 -11.59,12.93 z"
         inkscape:connector-curvature="0"
         style="fill:#ea4335;stroke-width:0.44298548" />
      <path
         id="path862"
         d="M 35.29,41.41 V 32 H 67 c 0.31,1.64 0.47,3.58 0.47,5.68 0,7.06 -1.93,15.79 -8.15,22.01 -6.05,6.3 -13.78,9.66 -24.02,9.66 C 16.32,69.35 0.36,53.89 0.36,34.91 0.36,15.93 16.32,0.47 35.3,0.47 c 10.5,0 17.98,4.12 23.6,9.49 L 52.26,16.6 C 48.23,12.82 42.77,9.88 35.29,9.88 c -13.86,0 -24.7,11.17 -24.7,25.03 0,13.86 10.84,25.03 24.7,25.03 8.99,0 14.11,-3.61 17.39,-6.89 2.66,-2.66 4.41,-6.46 5.1,-11.65 z"
         inkscape:connector-curvature="0"
         style="fill:#4285f4;stroke-width:0.44298548" />
    </g>
  </g>
</svg>
