<svg xmlns="http://www.w3.org/2000/svg" viewBox="-21 -14.4 42 42"><path fill="#fff" d="M-21-14.4h42v42h-42"/><path fill="#0093d3" d="M0 22.5166c6.2171 3.5826 14.1612 1.4504 17.749-4.7637S19.211 3.5929 13 0"/><path fill="#fff10c" d="M-13 0c-6.2111 3.593-8.3366 11.5388-4.749 17.7529S-6.217 26.0992 0 22.5166"/><path fill="#cc006b" d="M13 0c0-7.1797-5.8203-13-13-13S-13-7.1797-13 0"/><path fill="#008c3a" d="M-6.5 11.2583c0 4.6445 2.4778 8.9361 6.5 11.2584 4.0222-2.3223 6.5-6.614 6.5-11.2584"/><path fill="#1c1e66" d="M6.5 11.2583C10.5222 8.9361 13 4.6445 13 0 8.9778-2.3222 4.0222-2.3222 0 0"/><path fill="#cc0a21" d="M0 0c-4.0222-2.3222-8.9778-2.3222-13 0 0 4.6445 2.4778 8.9361 6.5 11.2583"/><path fill="#212323" d="M0 0c-4.0222 2.3222-6.5 6.6139-6.5 11.2583 4.0222 2.3223 8.9778 2.3223 13 0C6.5 6.614 4.0222 2.3223 0 0"/></svg>